<?xml version="1.0" encoding="utf-8"?>
<!-- Generator: Adobe Illustrator 24.0.0, SVG Export Plug-In . SVG Version: 6.00 Build 0)  -->
<svg version="1.1" id="Layer_1" xmlns="http://www.w3.org/2000/svg" xmlns:xlink="http://www.w3.org/1999/xlink" x="0px" y="0px"
	 viewBox="0 0 256 256" enable-background="new 0 0 256 256" xml:space="preserve">
<g>
	<path fill="#EBE7F2" d="M228.948,199.941H27.052c-1.381,0-2.5-1.119-2.5-2.5s1.119-2.5,2.5-2.5h201.896c1.381,0,2.5,1.119,2.5,2.5
		S230.329,199.941,228.948,199.941z"/>
	<path fill="#EBE7F2" d="M59.609,164.151c-7.277-0.717-8.543-10.327-9.7-17.719c-0.682-4.281-0.107-8.739-1.736-12.706
		c-1.254-2.962-3.034-5.656-3.81-8.94c-1.547-6.478,0.922-13.118,6.445-17.329c2.649-1.938,5.612,1.93,3.032,3.976
		c-3.927,2.995-5.695,7.666-4.614,12.192c0.663,2.741,2.446,5.451,3.562,8.181c1.987,4.765,1.389,9.211,2.072,13.934
		c0.586,3.519,1.406,11.636,4.674,13.391c0.212-0.213,0.607-0.877,0.808-2.027c0.237-1.36,1.534-2.275,2.893-2.032
		c1.36,0.238,2.27,1.533,2.032,2.893C64.532,161.613,62.833,164.003,59.609,164.151z M59.622,159.156h0.01H59.622z"/>
	<path fill="#EBE7F2" d="M81.887,164.151c-3.223-0.146-4.923-2.539-5.659-6.186c-0.238-1.36,0.671-2.656,2.031-2.894
		c1.36-0.244,2.655,0.671,2.894,2.031c0.202,1.15,0.596,1.814,0.808,2.028c3.268-1.749,4.09-9.879,4.675-13.395
		c0.68-4.721,0.084-9.165,2.071-13.929c1.116-2.73,2.9-5.441,3.563-8.181c1.081-4.526-0.688-9.198-4.615-12.192
		c-2.567-2.046,0.353-5.918,3.031-3.977c5.524,4.211,7.994,10.852,6.447,17.33c-0.776,3.284-2.556,5.979-3.81,8.94
		c-1.628,3.966-1.054,8.42-1.735,12.7C90.409,153.863,89.205,163.385,81.887,164.151z"/>
	<path fill="#EBE7F2" d="M116.861,164.151c-7.279-0.717-8.544-10.331-9.7-17.725c-0.682-4.279-0.107-8.735-1.735-12.7
		c-1.254-2.962-3.034-5.656-3.81-8.94c-1.547-6.478,0.922-13.118,6.445-17.329c2.649-1.938,5.612,1.93,3.032,3.976
		c-3.927,2.995-5.695,7.666-4.614,12.192c0.663,2.741,2.446,5.451,3.562,8.181c1.986,4.763,1.39,9.208,2.071,13.929
		c0.586,3.52,1.406,11.64,4.675,13.396c0.212-0.213,0.607-0.877,0.808-2.027c0.237-1.36,1.535-2.275,2.893-2.032
		c1.36,0.238,2.27,1.533,2.032,2.893C121.784,161.613,120.085,164.003,116.861,164.151z M116.874,159.156h0.01H116.874z"/>
	<path fill="#EBE7F2" d="M139.139,164.151c-3.222-0.146-4.924-2.54-5.659-6.186c-0.237-1.36,0.672-2.656,2.032-2.894
		c1.357-0.245,2.655,0.671,2.894,2.031c0.201,1.15,0.595,1.814,0.808,2.027c3.267-1.748,4.09-9.878,4.675-13.393
		c0.681-4.721,0.084-9.166,2.07-13.93c1.117-2.73,2.901-5.441,3.563-8.182c1.081-4.526-0.688-9.198-4.615-12.192
		c-2.568-2.047,0.354-5.918,3.031-3.977c5.523,4.211,7.994,10.852,6.447,17.33c-0.776,3.284-2.557,5.979-3.81,8.94
		c-1.628,3.967-1.054,8.422-1.735,12.703C147.66,153.864,146.456,163.386,139.139,164.151z"/>
	<path fill="#EBE7F2" d="M174.113,164.151c-7.278-0.717-8.544-10.33-9.701-17.722c-0.681-4.28-0.107-8.736-1.735-12.703
		c-1.253-2.961-3.033-5.656-3.81-8.939c-1.547-6.479,0.923-13.119,6.446-17.33c2.645-1.937,5.613,1.929,3.031,3.977
		c-3.927,2.994-5.695,7.665-4.614,12.192c0.663,2.741,2.447,5.451,3.563,8.181c1.986,4.764,1.389,9.209,2.07,13.93
		c0.586,3.519,1.406,11.639,4.675,13.394c0.213-0.213,0.606-0.877,0.808-2.027c0.239-1.36,1.542-2.269,2.894-2.031
		c1.36,0.238,2.27,1.533,2.032,2.894C179.036,161.612,177.337,164.003,174.113,164.151z M174.125,159.156h0.011H174.125z"/>
	<path fill="#EBE7F2" d="M196.391,164.151c-3.222-0.146-4.924-2.54-5.659-6.186c-0.237-1.36,0.672-2.656,2.032-2.894
		c1.357-0.245,2.655,0.671,2.894,2.031c0.201,1.15,0.595,1.814,0.808,2.027c3.267-1.748,4.09-9.878,4.675-13.393
		c0.681-4.721,0.084-9.166,2.07-13.93c1.117-2.73,2.901-5.441,3.563-8.182c1.081-4.526-0.688-9.198-4.615-12.192
		c-2.568-2.047,0.355-5.918,3.031-3.977c5.523,4.211,7.994,10.852,6.447,17.33c-0.776,3.284-2.557,5.979-3.81,8.94
		c-1.628,3.967-1.054,8.422-1.735,12.703C204.912,153.864,203.708,163.386,196.391,164.151z"/>
	<path fill="#F9B087" d="M132.123,97.77h-8.247c-2.797,0-5.24-1.891-5.94-4.599l-2.03-7.88l-7.006,4.135
		c-2.413,1.421-5.477,1.03-7.455-0.947l-5.831-5.831c-1.978-1.978-2.368-5.042-0.95-7.453l4.137-7.008l-7.877-2.03
		c-2.71-0.702-4.602-3.145-4.602-5.942v-8.246c0-2.797,1.891-5.24,4.598-5.941l7.881-2.031l-4.135-7.006
		c-1.42-2.413-1.03-5.477,0.948-7.455l5.831-5.831c1.977-1.978,5.041-2.367,7.452-0.949l7.008,4.137l2.03-7.878
		c0.701-2.709,3.144-4.601,5.941-4.601h8.247c2.797,0,5.24,1.891,5.94,4.598l2.031,7.88l7.006-4.135
		c2.41-1.421,5.478-1.031,7.454,0.947l5.831,5.831c1.978,1.978,2.368,5.042,0.949,7.453l-4.136,7.008l7.877,2.03
		c0.001,0,0.002,0,0.003,0.001c2.708,0.701,4.599,3.144,4.599,5.941v8.246c0,2.797-1.891,5.24-4.599,5.941l-7.88,2.031l4.135,7.005
		c1.42,2.413,1.029,5.477-0.947,7.455l-5.832,5.831c-1.979,1.978-5.043,2.369-7.452,0.949l-7.008-4.136l-2.03,7.878
		C137.363,95.878,134.92,97.77,132.123,97.77z M117.497,78.948c0.324,0,0.649,0.063,0.957,0.19c0.726,0.3,1.269,0.925,1.464,1.686
		l2.859,11.096c0.129,0.499,0.582,0.849,1.099,0.849h8.247c0.519,0,0.971-0.35,1.101-0.852l2.858-11.094
		c0.196-0.761,0.738-1.385,1.464-1.686c0.727-0.302,1.551-0.243,2.228,0.157l9.868,5.824c0.445,0.261,1.011,0.188,1.378-0.177
		l5.831-5.831c0.366-0.367,0.438-0.935,0.176-1.381l-5.823-9.865c-0.399-0.676-0.457-1.501-0.156-2.227
		c0.301-0.726,0.925-1.269,1.686-1.464l11.096-2.859c0.499-0.129,0.85-0.582,0.85-1.1v-8.246c0-0.518-0.35-0.97-0.852-1.101
		l-11.094-2.859c-0.761-0.196-1.385-0.738-1.686-1.464c-0.301-0.726-0.243-1.551,0.156-2.227l5.824-9.868
		c0.262-0.444,0.189-1.012-0.178-1.378l-5.83-5.831c-0.365-0.365-0.933-0.439-1.38-0.175l-9.866,5.823
		c-0.676,0.4-1.5,0.458-2.228,0.157c-0.726-0.301-1.268-0.925-1.464-1.686l-2.859-11.096c-0.129-0.499-0.581-0.849-1.1-0.849h-8.247
		c-0.518,0-0.97,0.35-1.1,0.851l-2.859,11.094c-0.196,0.761-0.738,1.385-1.464,1.686c-0.727,0.3-1.55,0.243-2.227-0.157
		l-9.868-5.824c-0.446-0.262-1.013-0.188-1.378,0.177l-5.831,5.831c-0.366,0.367-0.438,0.934-0.176,1.38l5.823,9.866
		c0.399,0.676,0.458,1.501,0.157,2.227c-0.3,0.726-0.925,1.268-1.686,1.464l-11.096,2.859c-0.499,0.129-0.849,0.582-0.849,1.1v8.246
		c0,0.518,0.35,0.971,0.852,1.101l11.093,2.858c0.761,0.196,1.385,0.738,1.686,1.464c0.301,0.726,0.243,1.551-0.157,2.227
		l-5.824,9.868c-0.261,0.444-0.189,1.012,0.177,1.379l5.831,5.831c0.367,0.366,0.935,0.438,1.381,0.175l9.865-5.822
		C116.616,79.065,117.056,78.948,117.497,78.948z"/>
	<g>
		<path fill="#846F75" d="M42.988,135.049c3.442,5.535,2.896,11.813,3.619,18.109c1.017,7.358,2.469,15.748,6.926,19.221
			c4.573,3.77,10.248,0.331,11.088-5.33c1.286-6.614-0.857-15.786,4.972-20.011c0.676-0.492,1.637-0.492,2.314,0
			c5.828,4.225,3.685,13.396,4.971,20.011c0.875,5.641,6.41,9.119,11.088,5.329c4.392-3.438,5.854-11.556,6.88-18.894
			c0.804-5.084,0.123-10.332,2.073-15.065c0.698-1.68,1.646-3.428,2.458-5.128c0.811,1.7,1.76,3.449,2.458,5.128
			c1.913,4.637,1.288,9.749,2.027,14.74c1.017,7.358,2.469,15.748,6.925,19.221c4.572,3.769,10.248,0.331,11.088-5.33
			c1.286-6.614-0.857-15.786,4.972-20.011c0.676-0.492,1.637-0.492,2.313,0c5.829,4.225,3.686,13.395,4.971,20.011
			c0.876,5.64,6.411,9.117,11.089,5.329c4.392-3.438,5.853-11.554,6.879-18.891c0.805-5.086,0.123-10.334,2.074-15.069
			c0.698-1.679,1.645-3.429,2.457-5.129c0.812,1.7,1.759,3.45,2.457,5.129c1.914,4.636,1.289,9.749,2.028,14.74
			c1.016,7.356,2.469,15.749,6.925,19.221c4.572,3.768,10.248,0.332,11.089-5.33c1.284-6.614-0.857-15.786,4.97-20.011
			c0.678-0.492,1.638-0.492,2.314,0c8.335,5.625,0.102,22.13,9.75,26.546c11.159,3.018,13.078-17.1,13.69-25.844
			c0.089-4.612,0.879-8.716,3.164-12.692c18.366-32.968-43.058-42.041-56.386-19.858c-9.289-16.188-47.961-16.188-57.252-0.001
			C85.844,93.032,24.798,101.932,42.988,135.049z M161.746,116.581c8.274-11.331,38.738-11.337,47.012,0
			c5.431,6.862,1.197,13.177-1.954,19.918c-2.313,5.568-1.6,10.733-2.409,16.297c-0.55,3.94-1.84,13.166-5.009,15.646
			c-1.617,1.356-2.602-0.22-3.081-2.254c-1.252-7.94,0.988-17.326-6.956-23.193c-2.371-1.769-5.823-1.769-8.194,0
			c-7.943,5.868-5.703,15.253-6.955,23.193c-0.487,2.046-1.453,3.6-3.081,2.254c-3.169-2.481-4.459-11.707-5.009-15.647
			c-0.264-1.758-0.366-3.572-0.46-5.327c-0.193-3.554-0.394-7.23-1.949-10.97C160.553,129.746,156.308,123.467,161.746,116.581z
			 M104.494,116.581c8.273-11.332,38.738-11.337,47.012,0c5.431,6.863,1.197,13.177-1.954,19.918
			c-2.313,5.568-1.6,10.733-2.409,16.297c-0.55,3.94-1.84,13.166-5.009,15.646c-1.618,1.355-2.602-0.222-3.081-2.254
			c-1.252-7.94,0.988-17.326-6.956-23.193c-2.397-1.744-5.799-1.741-8.194,0c-7.943,5.868-5.703,15.253-6.956,23.193
			c-0.488,2.046-1.453,3.599-3.081,2.254c-3.17-2.482-4.46-11.712-5.01-15.654c-0.262-1.757-0.365-3.569-0.459-5.322
			c-0.193-3.554-0.394-7.229-1.949-10.969C103.301,129.747,99.056,123.467,104.494,116.581z M47.242,116.581
			c8.272-11.331,38.74-11.337,47.012,0c5.431,6.862,1.197,13.177-1.954,19.918c-2.312,5.568-1.602,10.73-2.408,16.294
			c-0.551,3.94-1.841,13.168-5.01,15.65c-1.617,1.357-2.602-0.221-3.081-2.254c-1.252-7.94,0.988-17.326-6.955-23.193
			c-2.398-1.744-5.8-1.742-8.195,0c-7.943,5.868-5.703,15.253-6.956,23.193c-0.488,2.046-1.453,3.599-3.081,2.254
			c-3.17-2.482-4.46-11.712-5.01-15.654c-0.262-1.757-0.365-3.569-0.459-5.322c-0.193-3.554-0.394-7.229-1.949-10.968
			C46.05,129.746,41.803,123.468,47.242,116.581z"/>
		<path fill="#846F75" d="M224.319,153.599c-1.249-0.594-2.739-0.061-3.331,1.186c-0.592,1.248-0.061,2.738,1.187,3.331
			c2.596,1.232,4.273,3.893,4.273,6.778v48.076c0,4.136-3.364,7.5-7.5,7.5H37.052c-4.136,0-7.5-3.364-7.5-7.5v-48.076
			c0-2.885,1.677-5.546,4.273-6.778c1.247-0.592,1.778-2.083,1.186-3.331c-0.591-1.247-2.081-1.779-3.331-1.186
			c-4.331,2.056-7.129,6.489-7.129,11.295v48.076c0,6.893,5.607,12.5,12.5,12.5h181.896c6.893,0,12.5-5.607,12.5-12.5v-48.076
			C231.448,160.088,228.65,155.655,224.319,153.599z"/>
		<path fill="#846F75" d="M113.989,58.592H125.5v11.511c0,1.381,1.119,2.5,2.5,2.5s2.5-1.119,2.5-2.5V58.592h11.511
			c1.381,0,2.5-1.119,2.5-2.5s-1.119-2.5-2.5-2.5H130.5V42.081c0-1.381-1.119-2.5-2.5-2.5s-2.5,1.119-2.5,2.5v11.511h-11.511
			C110.693,53.675,110.692,58.509,113.989,58.592z"/>
		<path fill="#846F75" d="M59.578,81.897h8.67v8.67c0,1.381,1.119,2.5,2.5,2.5s2.5-1.119,2.5-2.5v-8.67h8.67
			c1.381,0,2.5-1.119,2.5-2.5s-1.119-2.5-2.5-2.5h-8.67v-8.67c0-1.381-1.119-2.5-2.5-2.5s-2.5,1.119-2.5,2.5v8.67h-8.67
			C56.281,76.98,56.281,81.815,59.578,81.897z"/>
		<path fill="#846F75" d="M174.082,81.897h8.67v8.67c0,1.381,1.119,2.5,2.5,2.5s2.5-1.119,2.5-2.5v-8.67h8.67
			c1.381,0,2.5-1.119,2.5-2.5s-1.119-2.5-2.5-2.5h-8.67v-8.67c0-1.381-1.119-2.5-2.5-2.5s-2.5,1.119-2.5,2.5v8.67h-8.67
			C170.785,76.98,170.785,81.815,174.082,81.897z"/>
	</g>
</g>
</svg>
