<?xml version="1.0" encoding="utf-8"?>
<!-- Generator: Adobe Illustrator 27.2.0, SVG Export Plug-In . SVG Version: 6.00 Build 0)  -->
<svg version="1.1" id="Layer_1" xmlns="http://www.w3.org/2000/svg" xmlns:xlink="http://www.w3.org/1999/xlink" x="0px" y="0px"
	 viewBox="0 0 50 50" style="enable-background:new 0 0 50 50;" xml:space="preserve">
<style type="text/css">
	.st0{fill:#FFFFFF;}
	.st1{font-family:'MyriadPro-Regular';}
	.st2{font-size:28px;}
</style>
<path d="M25,2C12.3,2,2,12.3,2,25s10.3,23,23,23c3.3,0,6.5-0.7,9.3-2c0.1,0.4,0.2,0.7,0.3,1.1c0.2,0.7,0.5,1.3,0.9,1.9s1.1,1,1.9,1
	c0.7,0,1.5-0.3,1.9-0.9s0.6-1.3,0.6-2.1c0-1.3,0.3-3,0.5-4.6c0.3,1.6,0.5,3.3,0.5,4.6c0,0.8,0.2,1.5,0.6,2.1s1.2,0.9,1.9,0.9
	c0.8,0,1.5-0.5,1.9-1s0.7-1.2,0.9-1.9c0.4-1.4,0.7-3,1.1-4.4c0.3-1.1,0.9-2,1.4-3c0.6-1,1.1-2.2,1.1-3.7c0-2-0.7-3.8-1.9-5
	c-0.2-0.2-0.5-0.4-0.7-0.6c0.4-1.7,0.6-3.5,0.6-5.3C48,12.3,37.7,2,25,2z M42.8,31c1.7,0,3,0.5,3.8,1.4c0.9,0.8,1.3,2,1.3,3.6v0v0
	c0,1-0.4,1.8-0.9,2.7c-0.5,0.9-1.2,2-1.6,3.5h0v0c-0.4,1.5-0.7,3.2-1,4.3c-0.2,0.6-0.4,1-0.6,1.3S43.7,48,43.6,48
	c-0.3,0-0.3,0-0.4-0.1c-0.1-0.1-0.2-0.3-0.2-0.8c0-1.9-0.4-4.3-0.7-6.2c-0.1-0.9-1-1.6-1.8-1.6s-1.6,0.6-1.8,1.5l0,0l0,0
	c-0.4,2-0.7,4.3-0.7,6.2c0,0.5-0.1,0.7-0.2,0.8C37.7,48,37.7,48,37.4,48c-0.1,0-0.1,0-0.3-0.2c-0.2-0.2-0.4-0.7-0.6-1.3
	c-0.4-1.2-0.6-2.8-1-4.3l0,0v0c-0.4-1.5-1.1-2.5-1.6-3.5S33,37,33,35.9c0-1.5,0.5-2.7,1.4-3.6c0.8-0.8,2.1-1.3,3.8-1.4
	c1.3,0.1,2.5,0.7,3.3,1.7c0.4,0.4,1,0.5,1.4,0.1s0.5-1,0.1-1.4c-0.1-0.1-0.2-0.3-0.4-0.4C42.7,31,42.8,31,42.8,31z"/>
<text transform="matrix(1 0 0 1 17.8426 33.6852)" class="st0 st1 st2">$</text>
</svg>
