<?xml version="1.0" encoding="utf-8"?>
<!-- Generator: Adobe Illustrator 27.2.0, SVG Export Plug-In . SVG Version: 6.00 Build 0)  -->
<svg version="1.1" id="Layer_1" xmlns="http://www.w3.org/2000/svg" xmlns:xlink="http://www.w3.org/1999/xlink" x="0px" y="0px"
	 viewBox="0 0 50 50" style="enable-background:new 0 0 50 50;" xml:space="preserve">
<path d="M29.5,4.2c-1.6,0-3,0.2-4.3,0.5C26.7,5.9,28,7.3,29,9.1c0.2,0.4,0.1,1-0.4,1.2c-0.1,0.1-0.3,0.1-0.4,0.1
	c-0.3,0-0.6-0.2-0.8-0.5c-1.4-2.6-4.7-5.7-8.5-5.7C14,4.2,9.4,7,7.1,11.3c-1.6,3-1.6,6.1-1.6,6.4c0,1.3,0.2,2.4,0.5,3.2
	c4.3,0,8.7,0,13,0c0-1.7,0-3.3,0-5c0-0.6,0.4-1,1-1h10c0.6,0,1,0.4,1,1c0,1.7,0,3.3,0,5c4,0,8,0,12,0c0.2-0.8,0.4-1.9,0.4-3.2
	c0-0.9,0.1-5.8-3.5-9.6C37.4,5.6,33.8,4.2,29.5,4.2z M31,21L31,21v3c0,0.6-0.4,1-1,1H20c-0.6,0-1-0.4-1-1v-3H6
	c0.5,1.8,1.4,3.4,2.4,5.1c1,1.7,2,3.5,2.6,5.7c0.3,1.3,0.7,2.7,0.9,4c1.2,5.5,1.9,10.4,5.7,10.4c2.6,0,4.4-1.7,4.6-4.8
	c0.4-3.9,0.8-6.1,1.5-9.6c0.1-0.6,0.5-0.8,0.9-0.8h0c0.2,0,0.7,0.1,0.8,0.8c1,5.4,1.1,6.8,1.5,9.7c0.4,3.1,2,4.8,4.7,4.8
	c3.8,0,4.4-4.9,5.6-10.3c0.3-1.4,0.6-2.8,1-4.1c0.6-2.2,1.6-4,2.6-5.7c0.9-1.7,1.8-3.3,2.4-5.1H31z M9,25h31.3V14.3H9V25z M5.5,30.3
	"/>
</svg>
