<?xml version="1.0"?><svg fill="#000000" xmlns="http://www.w3.org/2000/svg"  viewBox="0 0 50 50" width="50px" height="50px">    <path d="M 29.486328 4.2304688 C 27.910328 4.2304688 26.484891 4.413 25.212891 4.75 C 26.728891 5.862 28.019891 7.3328906 28.962891 9.0878906 C 29.198891 9.5328906 29.040656 10.088031 28.597656 10.332031 C 28.463656 10.407031 28.316969 10.443359 28.167969 10.443359 C 27.845969 10.443359 27.536094 10.271797 27.371094 9.9667969 C 25.961094 7.3407969 22.688906 4.2298125 18.878906 4.2578125 C 11.832906 4.2298125 5.5 9.9103437 5.5 17.777344 C 5.5 18.199344 5.5225 18.606 5.5625 19 L 19 19 L 19 16 C 19 15.448 19.447 15 20 15 L 30 15 C 30.553 15 31 15.448 31 16 L 31 19 L 43.4375 19 C 43.4775 18.609 43.498047 18.205109 43.498047 17.787109 C 43.541047 13.930109 42.314125 10.6085 39.953125 8.1875 C 37.430125 5.5965 33.812328 4.2304687 29.486328 4.2304688 z M 21 17 L 21 23 L 29 23 L 29 17 L 21 17 z M 25 19 C 25.552 19 26 19.448 26 20 C 26 20.552 25.552 21 25 21 C 24.448 21 24 20.552 24 20 C 24 19.448 24.448 19 25 19 z M 31 20.998047 L 31 21 L 31 24 C 31 24.552 30.553 25 30 25 L 20 25 C 19.447 25 19 24.552 19 24 L 19 21 L 5.9511719 21 C 6.4681719 22.841 7.3647344 24.445516 8.3027344 26.103516 C 9.2817344 27.840516 10.296625 29.637266 10.890625 31.822266 C 11.236625 33.124266 11.541891 34.517328 11.837891 35.861328 C 13.035891 41.322328 13.718 46.230469 17.5 46.230469 C 20.129 46.230469 21.865437 44.576594 22.148438 41.433594 C 22.499437 37.535594 22.987281 35.341156 23.613281 31.785156 C 23.729281 31.205156 24.16025 31 24.53125 31 L 24.548828 31 C 24.714828 31.004 25.265812 31.067766 25.382812 31.759766 C 26.354813 37.179766 26.499609 38.550594 26.849609 41.433594 C 27.229609 44.566594 28.871 46.230469 31.5 46.230469 C 35.264 46.230469 35.945531 41.339297 37.144531 35.904297 C 37.448531 34.541297 37.755469 33.130219 38.105469 31.824219 C 38.702469 29.635219 39.716312 27.838563 40.695312 26.101562 C 41.633313 24.442563 42.531828 22.837047 43.048828 20.998047 L 31 20.998047 z"/></svg>