<svg fill="#000000" xmlns="http://www.w3.org/2000/svg"  viewBox="0 0 50 50" width="50px" height="50px"><path d="M 28.677734 1.3710938 C 26.659547 1.3126738 24.390812 2.4777969 22.945312 4.2636719 C 20.178313 3.1746719 17.087125 2.4374531 15.328125 3.5644531 C 14.722125 3.9524531 14 4.735625 14 6.265625 C 14 7.073625 14.185219 7.6797187 14.449219 8.1367188 C 8.0822187 11.887719 3.3219531 18.862406 4.0019531 29.066406 C 4.5289531 36.972406 8.3738594 41.378594 11.505859 43.683594 C 14.758859 46.077594 18.768203 47.351562 22.783203 47.351562 C 24.235203 47.351562 25.687469 47.18375 27.105469 46.84375 C 27.203776 46.820173 27.29147 46.775683 27.375 46.726562 C 29.990684 46.139349 32.221571 44.618326 34.044922 42.580078 C 36.295748 40.063973 37.980121 36.760325 39.330078 33.3125 C 41.386422 32.809233 43 31.067071 43 28.800781 C 43 27.589283 42.58125 26.609777 41.994141 25.919922 A 1.0001 1.0001 0 0 0 42 25.800781 L 42 22.398438 C 42 17.666246 40.692592 13.296332 37.732422 10.107422 C 36.453276 8.7294326 34.854736 7.6071181 32.972656 6.7558594 C 32.976621 6.7138444 32.995552 6.676105 32.994141 6.6328125 C 32.860141 2.6298125 30.522438 1.6906562 29.523438 1.4726562 C 29.248438 1.4126562 28.966047 1.3794395 28.677734 1.3710938 z M 24.294922 7.0117188 C 25.076498 7.0200319 25.819531 7.0643397 26.533203 7.1347656 C 24.689863 8.5562542 21.390551 11.449984 19.669922 15.160156 C 19.669922 15.160156 20.744141 17.96875 27.744141 17.96875 C 34.744141 17.96875 35.244516 19.086047 35.978516 23.873047 C 35.979374 25.588498 38.202556 26.650858 40.097656 26.289062 A 1.0001 1.0001 0 0 0 40.394531 27.105469 C 40.704555 27.415493 41 27.940774 41 28.800781 C 41 30.300781 39.932089 31.353551 38.498047 31.503906 A 1.0001 1.0001 0 0 0 37.667969 32.142578 C 36.341684 35.626529 34.651404 38.902261 32.554688 41.246094 C 30.873906 43.124968 28.974807 44.388825 26.728516 44.822266 C 19.004095 43.521612 16.330283 35.250999 15.427734 30.386719 C 13.698579 21.077716 17.343324 11.521068 24.294922 7.0117188 z M 19.5 27 C 18.672 27 18 27.672 18 28.5 C 18 29.328 18.672 30 19.5 30 C 20.328 30 21 29.328 21 28.5 C 21 27.672 20.328 27 19.5 27 z M 30.5 27 C 29.672 27 29 27.672 29 28.5 C 29 29.328 29.672 30 30.5 30 C 31.328 30 32 29.328 32 28.5 C 32 27.672 31.328 27 30.5 27 z M 24.064453 36.5625 C 23.764112 36.573313 23.486123 36.598806 23.234375 36.634766 C 22.227382 36.778622 21.552734 37.105469 21.552734 37.105469 A 1.0001163 1.0001163 0 1 0 22.447266 38.894531 C 22.447266 38.894531 22.772618 38.721378 23.515625 38.615234 C 24.258632 38.509091 25.341708 38.501923 26.683594 38.949219 A 1.0005646 1.0005646 0 1 0 27.316406 37.050781 C 26.487349 36.774429 25.718774 36.634992 25.03125 36.582031 C 24.687488 36.555551 24.364794 36.551687 24.064453 36.5625 z"/></svg>