<svg fill="#000000" xmlns="http://www.w3.org/2000/svg"  viewBox="0 0 50 50" width="50px" height="50px"><path d="M 18 3 C 9.7275685 3 3 9.7275745 3 18 C 3 26.272425 9.7275685 33 18 33 C 21.664484 33 24.980197 31.627264 27.587891 29.4375 L 34.115234 35.800781 L 31.34375 38.572266 C 30.95375 38.962266 30.953797 39.592422 31.341797 39.982422 L 38.140625 46.837891 C 38.335625 47.034891 38.594563 47.132812 38.851562 47.132812 C 39.104563 47.132812 39.358734 47.036703 39.552734 46.845703 L 46.677734 39.828125 C 46.867734 39.640125 46.975562 39.386141 46.976562 39.119141 C 46.977562 38.852141 46.871594 38.597203 46.683594 38.408203 L 39.802734 31.527344 C 39.411734 31.136344 38.779672 31.136344 38.388672 31.527344 L 35.529297 34.386719 L 29.044922 28.064453 C 31.476984 25.397454 33 21.886161 33 18 C 33 9.7275745 26.272431 3 18 3 z M 18 5 C 25.191552 5 31 10.808453 31 18 C 31 25.191547 25.191552 31 18 31 C 10.808448 31 5 25.191547 5 18 C 5 10.808453 10.808448 5 18 5 z"/></svg>