<svg fill="#000000" xmlns="http://www.w3.org/2000/svg"  viewBox="0 0 50 50" width="50px" height="50px"><path d="M32 24.577L32 21 20 21 20 28.327zM20 37.327L32 33.577 32 26.673 20 30.423zM20 39.423V43c0 .304.138.591.375.781l5 4C25.558 47.927 25.779 48 26 48s.442-.073.625-.219l5-4C31.862 43.591 32 43.304 32 43v-7.327L20 39.423zM45.787 19c.131-.706.212-1.445.212-2.239.047-4.2-1.308-7.814-3.918-10.453C39.294 3.49 35.293 2 30.512 2c-1.743 0-3.318.198-4.721.566 1.672 1.212 3.099 2.811 4.141 4.722.265.485.086 1.092-.399 1.356-.151.083-.315.122-.478.122-.354 0-.697-.188-.879-.521C26.618 5.388 23 2 18.788 2.032 11 2 4 8.182 4 16.75c0 .798.082 1.54.213 2.25H45.787z"/></svg>