<svg fill="#000000" xmlns="http://www.w3.org/2000/svg"  viewBox="0 0 50 50" width="50px" height="50px"><path d="M 7 4 C 6.447 4 6 4.447 6 5 L 6 45 C 6 45.553 6.447 46 7 46 L 39 46 C 39.553 46 40 45.553 40 45 L 40 18.910156 C 40.581301 19.016114 41.335266 19.213542 42.089844 19.603516 C 43.640032 20.404673 45.132812 21.815755 45.132812 25.197266 C 45.132812 26.758785 44.49231 28.964953 43.810547 30.744141 C 42.636808 33.808843 42.77547 37.43051 44.320312 40.275391 L 44.322266 40.275391 C 45.300511 42.075802 46.736511 43.520726 48.484375 44.574219 A 1.000188 1.000188 0 1 0 49.517578 42.861328 C 48.043442 41.97282 46.87988 40.795902 46.078125 39.320312 C 44.858968 37.075193 44.717474 33.966282 45.677734 31.458984 C 46.399971 29.574172 47.132813 27.263746 47.132812 25.197266 C 47.132812 21.170776 45.041124 18.877014 43.007812 17.826172 C 41.865985 17.23606 40.774671 16.996358 40 16.886719 L 40 5 C 40 4.447 39.553 4 39 4 L 7 4 z M 8 17.017578 L 23 20.966797 L 38 17.017578 L 38 17.486328 A 1.0001 1.0001 0 0 0 38 18.091797 L 38 19.085938 L 23 23.033203 L 8 19.085938 L 8 17.017578 z"/></svg>