<svg fill="#000000" xmlns="http://www.w3.org/2000/svg"  viewBox="0 0 50 50" width="50px" height="50px"><path d="M 19.578125 2 C 17.131125 2 14.902547 2.4186406 12.935547 3.1816406 C 16.364547 3.7936406 19.240203 6 20.783203 9 L 24 9 C 24.553 9 25 9.448 25 10 C 25 10.552 24.553 11 24 11 L 21.580078 11 C 21.851078 11.954 22 12.96 22 14 C 22 15.353 21.743922 16.643797 21.294922 17.841797 L 23.050781 18.802734 C 23.534781 19.067734 23.713266 19.674203 23.447266 20.158203 C 23.265266 20.490203 22.922359 20.679688 22.568359 20.679688 C 22.406359 20.679688 22.241844 20.639641 22.089844 20.556641 L 20.423828 19.644531 C 19.116828 21.818531 17.083203 23.500375 14.658203 24.359375 L 15.486328 27.050781 C 15.648328 27.578781 15.352219 28.137781 14.824219 28.300781 C 14.726219 28.330781 14.626297 28.345703 14.529297 28.345703 C 14.101297 28.345703 13.707219 28.069672 13.574219 27.638672 L 12.716797 24.851562 C 12.154797 24.941562 11.585 25 11 25 C 9.179 25 7.4651719 24.547719 5.9511719 23.761719 C 6.3131719 24.449719 6.7026563 25.128406 7.0976562 25.816406 C 8.1816562 27.707406 9.3020312 29.663969 9.9570312 32.042969 C 10.338031 33.459969 10.675953 34.974453 11.001953 36.439453 C 12.327953 42.384453 13.579859 48 17.755859 48 C 20.663859 48 22.400391 45.946812 22.400391 42.507812 C 22.400391 38.237812 23.327531 32.558547 24.019531 28.685547 C 24.149531 28.055547 24.623203 27.832031 25.033203 27.832031 L 25.056641 27.832031 C 25.240641 27.836031 25.848609 27.905109 25.974609 28.662109 C 27.051609 34.564109 27.599609 39.222812 27.599609 42.507812 C 27.599609 45.946813 29.335141 47.998047 32.244141 47.998047 C 36.402141 47.998047 37.654516 42.406328 38.978516 36.486328 C 39.311516 35.002328 39.654016 33.467828 40.041016 32.048828 C 40.698016 29.663828 41.818344 27.706406 42.902344 25.816406 C 44.495344 23.037406 46 20.414719 46 16.761719 C 46.046 12.562719 44.690078 8.9465937 42.080078 6.3085938 C 39.293078 3.4895937 35.292719 2 30.511719 2 C 28.457719 2 26.620922 2.2595312 25.044922 2.7695312 C 23.468922 2.2595312 21.632125 2 19.578125 2 z M 11 5 C 10.441 5 9.8962344 5.05825 9.3652344 5.15625 C 5.9782344 7.74725 4 11.791 4 16.75 C 4 18.003 4.1844687 19.1295 4.4804688 20.1875 C 6.1214688 21.9155 8.434 23 11 23 C 11.381 23 11.753094 22.968875 12.121094 22.921875 L 11.515625 20.947266 C 11.353625 20.419266 11.649734 19.860266 12.177734 19.697266 C 12.707734 19.531266 13.264734 19.831375 13.427734 20.359375 L 14.070312 22.449219 C 15.996313 21.747219 17.612922 20.409547 18.669922 18.685547 L 15.949219 17.195312 C 15.465219 16.930312 15.288687 16.323844 15.554688 15.839844 C 15.819688 15.354844 16.426156 15.176406 16.910156 15.441406 L 19.523438 16.871094 C 19.827437 15.968094 20 15.005 20 14 C 20 12.947 19.808609 11.94 19.474609 11 L 17 11 C 16.447 11 16 10.552 16 10 C 16 9.448 16.447 9 17 9 L 18.478516 9 C 16.862516 6.59 14.114 5 11 5 z"/></svg>