<svg fill="#000000" xmlns="http://www.w3.org/2000/svg"  viewBox="0 0 50 50" width="50px" height="50px"><path d="M 25 2 C 12.317 2 2 12.317 2 25 C 2 37.683 12.317 48 25 48 C 28.317881 48 31.468618 47.284915 34.320312 46.013672 C 34.413677 46.390819 34.512109 46.760793 34.623047 47.113281 C 34.841464 47.80727 35.095843 48.44706 35.515625 48.994141 C 35.935407 49.541221 36.633359 50 37.421875 50 C 38.137624 50 38.87396 49.701059 39.333984 49.136719 C 39.794009 48.572379 39.970703 47.846901 39.970703 47.060547 C 39.970703 45.779483 40.247816 44.088048 40.5 42.494141 C 40.752199 44.078922 41.029297 45.778352 41.029297 47.060547 C 41.029297 47.846901 41.205991 48.572379 41.666016 49.136719 C 42.12604 49.701059 42.862376 50 43.578125 50 C 44.370213 50 45.067725 49.536188 45.486328 48.986328 C 45.904931 48.436469 46.158791 47.793548 46.376953 47.097656 C 46.812912 45.707036 47.079559 44.065446 47.447266 42.691406 C 47.750636 41.573108 48.315477 40.673344 48.878906 39.650391 C 49.441504 38.628947 49.996404 37.446194 49.998047 35.943359 C 50.017957 33.958547 49.34426 32.180802 48.072266 30.933594 C 47.851712 30.717338 47.608 30.525563 47.355469 30.34375 C 47.767328 28.626982 48 26.841497 48 25 C 48 12.317 37.683 2 25 2 z M 25 7 C 25.553 7 26 7.447 26 8 L 26 22.183594 C 27.163 22.596594 28 23.696 28 25 C 28 26.657 26.657 28 25 28 C 24.538 28 24.105844 27.886219 23.714844 27.699219 L 17.707031 33.707031 C 17.512031 33.902031 17.256 34 17 34 C 16.744 34 16.487969 33.902031 16.292969 33.707031 C 15.901969 33.316031 15.901969 32.683969 16.292969 32.292969 L 22.300781 26.285156 C 22.113781 25.894156 22 25.462 22 25 C 22 23.696 22.837 22.596594 24 22.183594 L 24 8 C 24 7.447 24.447 7 25 7 z M 42.84375 31 C 44.550232 31 45.817448 31.521635 46.673828 32.361328 C 47.530209 33.201021 48.016563 34.392143 48 35.927734 L 48 35.931641 L 48 35.9375 C 48 36.964495 47.648024 37.7395 47.126953 38.685547 C 46.605883 39.631594 45.912208 40.713267 45.517578 42.167969 L 45.515625 42.167969 L 45.515625 42.169922 C 45.109855 43.6851 44.835926 45.328784 44.46875 46.5 C 44.285162 47.085608 44.070116 47.542797 43.894531 47.773438 C 43.718947 48.004078 43.696037 48 43.578125 48 C 43.325874 48 43.287319 47.96196 43.214844 47.873047 C 43.142364 47.784137 43.029297 47.541192 43.029297 47.060547 C 43.029297 45.15467 42.670643 42.804034 42.318359 40.84375 C 42.168432 39.924839 41.31121 39.291016 40.513672 39.291016 C 39.716134 39.291016 38.87319 39.895381 38.6875 40.804688 L 38.683594 40.816406 L 38.681641 40.830078 C 38.330543 42.826696 37.970703 45.148909 37.970703 47.060547 C 37.970703 47.541192 37.855679 47.784137 37.783203 47.873047 C 37.710769 47.961957 37.674126 48 37.421875 48 C 37.300391 48 37.275968 48.0046 37.101562 47.777344 C 36.927157 47.550049 36.714582 47.096183 36.53125 46.513672 C 36.164585 45.34865 35.889126 43.704978 35.484375 42.173828 L 35.482422 42.171875 L 35.482422 42.167969 C 35.088383 40.713227 34.394032 39.63385 33.873047 38.6875 C 33.352062 37.74115 33 36.964495 33 35.9375 C 33 34.399484 33.49704 33.20496 34.359375 32.363281 C 35.207423 31.535548 36.44887 31.020849 38.113281 31.003906 C 39.463096 31.110587 40.628182 31.72347 41.460938 32.705078 A 1.0004546 1.0004546 0 0 0 42.986328 31.410156 C 42.869604 31.272568 42.743797 31.143101 42.617188 31.015625 C 42.696907 31.013347 42.760998 31 42.84375 31 z"/></svg>