<?xml version="1.0"?><svg fill="#000000" xmlns="http://www.w3.org/2000/svg"  viewBox="0 0 50 50" width="50px" height="50px">    <path d="M 21.5 0 C 14.278 0 12.963422 2.0720313 12.732422 2.7070312 C 12.705422 2.7800312 12.688687 2.8575469 12.679688 2.9355469 L 11.287109 14.941406 C 10.808109 17.704406 9.6740781 20.467531 8.2050781 22.394531 C 8.0370781 22.614531 7.9676719 22.892062 8.0136719 23.164062 C 8.0596719 23.436063 8.2153125 23.679031 8.4453125 23.832031 C 11.517312 25.880031 14.252016 25.930281 17.416016 25.988281 L 17.919922 25.998047 C 19.009922 26.616047 20.22 26.972656 21.5 26.972656 C 22.78 26.972656 23.990078 26.616047 25.080078 25.998047 L 25.583984 25.988281 C 28.747984 25.930281 31.481687 25.881031 34.554688 23.832031 C 34.783687 23.679031 34.940328 23.436063 34.986328 23.164062 C 35.032328 22.892062 34.962922 22.613531 34.794922 22.394531 C 33.255922 20.376531 32.120734 17.553484 31.677734 14.646484 L 30.320312 2.9355469 C 30.311312 2.8585469 30.293625 2.7810312 30.265625 2.7070312 C 30.035625 2.0720312 28.722 -1.4802974e-16 21.5 0 z M 20.5 3.7949219 L 22.5 3.7949219 L 22.5 6.5234375 L 25.228516 6.5234375 L 25.228516 8.5234375 L 22.5 8.5234375 L 22.5 11.25 L 20.5 11.25 L 20.5 8.5234375 L 17.771484 8.5234375 L 17.771484 6.5234375 L 20.5 6.5234375 L 20.5 3.7949219 z M 16.615234 13.882812 C 17.080234 13.882812 17.648391 13.924703 18.275391 13.970703 C 19.153391 14.034703 20.245 14.113281 21.5 14.113281 C 22.755 14.113281 23.846609 14.034703 24.724609 13.970703 C 26.097609 13.869703 27.182109 13.789141 27.537109 14.119141 C 27.844109 14.405141 28 15.258297 28 16.654297 C 28 21.240297 25.084 24.972656 21.5 24.972656 C 17.916 24.972656 15 21.241297 15 16.654297 C 15 15.258297 15.156844 14.405141 15.464844 14.119141 C 15.656844 13.940141 16.064234 13.882813 16.615234 13.882812 z M 21.5 28 C 19.724 28 17.974156 28.137578 16.285156 28.392578 L 21.5 39.625 L 26.714844 28.392578 C 25.025844 28.137578 23.276 28 21.5 28 z M 14.251953 28.761719 C 6.2009531 30.474719 2.3684758e-15 34.850687 0 39.554688 L 0 46 C 0 46.553 0.447 47 1 47 L 32.517578 47 C 32.328578 46.313 32.175156 45.624328 32.035156 44.986328 C 31.890156 44.334328 31.762234 43.751313 31.615234 43.195312 C 31.425234 42.493313 31.064484 41.852328 30.646484 41.111328 C 29.913484 39.812328 29 38.1915 29 35.9375 C 29 33.3045 29.946312 31.070141 31.570312 29.494141 C 30.662312 29.215141 29.711187 28.981391 28.742188 28.775391 L 22.40625 42.421875 C 22.24225 42.773875 21.89 43 21.5 43 C 21.11 43 20.75775 42.774875 20.59375 42.421875 L 14.251953 28.761719 z M 42.84375 29 C 42.54975 29 42.276953 29.028734 42.001953 29.052734 C 42.403953 29.463734 42.784516 29.935391 43.103516 30.525391 C 43.366516 31.010391 43.185219 31.618859 42.699219 31.880859 C 42.547219 31.961859 42.384609 32 42.224609 32 C 41.869609 32 41.52575 31.811563 41.34375 31.476562 C 40.35875 29.654563 38.605125 29.15425 37.453125 29.03125 C 33.562125 29.33425 31 32.0305 31 35.9375 C 31 37.6665 31.705672 38.918906 32.388672 40.128906 C 32.852672 40.950906 33.291781 41.729547 33.550781 42.685547 C 33.710781 43.291547 33.850281 43.929594 33.988281 44.558594 C 34.575281 47.233594 35.183875 50 37.421875 50 C 38.970875 50 39.970703 48.846547 39.970703 47.060547 C 39.970703 45.552547 40.242 43.615547 40.5 42.060547 C 40.852 44.162547 41.029297 45.839547 41.029297 47.060547 C 41.029297 48.846547 42.029125 50 43.578125 50 C 45.809125 50 46.416906 47.244078 47.003906 44.580078 C 47.143906 43.942078 47.285266 43.296453 47.447266 42.689453 C 47.708266 41.727453 48.145375 40.951906 48.609375 40.128906 C 49.293375 38.917906 50 37.667266 50 35.947266 C 50.021 33.963266 49.378625 32.252 48.140625 31 C 46.845625 29.691 45.01475 29 42.84375 29 z"/></svg>