<?xml version="1.0"?><svg fill="#000000" xmlns="http://www.w3.org/2000/svg"  viewBox="0 0 50 50" width="50px" height="50px">    <path d="M 40.181641 1.0742188 C 39.925766 1.0742188 39.669609 1.1716875 39.474609 1.3671875 C 39.084609 1.7581875 39.083609 2.39025 39.474609 2.78125 L 42.302734 5.609375 L 43.716797 4.1953125 L 40.888672 1.3671875 C 40.693172 1.1716875 40.437516 1.0742188 40.181641 1.0742188 z M 37.353516 3.9023438 C 37.097641 3.9023438 36.841484 3.9998125 36.646484 4.1953125 C 36.255484 4.5863125 36.255484 5.218375 36.646484 5.609375 L 39.474609 8.4375 L 40.888672 7.0234375 L 38.060547 4.1953125 C 37.865047 3.9998125 37.609391 3.9023438 37.353516 3.9023438 z M 45.765625 5.3945312 C 45.509875 5.3945312 45.254094 5.492 45.058594 5.6875 L 29.585938 21.15625 C 29.798938 21.32925 30.004172 21.513938 30.201172 21.710938 L 30.445312 21.951172 C 30.643313 22.149172 30.827 22.356313 31 22.570312 L 46.472656 7.1015625 C 46.863656 6.7105625 46.863656 6.0775 46.472656 5.6875 C 46.277156 5.492 46.021375 5.3945312 45.765625 5.3945312 z M 34.525391 6.7324219 C 34.269516 6.7324219 34.013359 6.8298906 33.818359 7.0253906 C 33.427359 7.4163906 33.427359 8.0484531 33.818359 8.4394531 L 36.646484 11.267578 L 38.060547 9.8535156 L 35.232422 7.0253906 C 35.036922 6.8298906 34.781266 6.7324219 34.525391 6.7324219 z M 24.669922 21.417969 C 23.114922 21.417969 21.649781 22.023047 20.550781 23.123047 L 4.0742188 39.597656 C 2.9532188 40.719656 2.9532188 42.543062 4.0742188 43.664062 L 8.4921875 48.082031 C 9.0351875 48.625031 9.7593437 48.925781 10.527344 48.925781 C 11.295344 48.925781 12.017547 48.625031 12.560547 48.082031 L 29.035156 31.607422 C 31.306156 29.336422 31.307156 25.642141 29.035156 23.369141 L 28.787109 23.123047 C 27.687109 22.023047 26.224922 21.417969 24.669922 21.417969 z M 24.587891 26.570312 C 24.843766 26.570312 25.099922 26.667781 25.294922 26.863281 C 25.685922 27.253281 25.685922 27.887344 25.294922 28.277344 C 24.903922 28.668344 24.270859 28.668344 23.880859 28.277344 C 23.489859 27.886344 23.489859 27.253281 23.880859 26.863281 C 24.076359 26.667781 24.332016 26.570312 24.587891 26.570312 z"/></svg>