<?xml version="1.0" encoding="UTF-8"?>
<svg xmlns="http://www.w3.org/2000/svg" viewBox="0 0 1466.37 1150.57">
  <defs>
    <style>
      .cls-1 {
        fill: #f89639;
      }

      .cls-2 {
        fill: #faa71a;
      }

      .cls-3 {
        fill: #f9a05c;
      }

      .cls-4 {
        fill: #00b095;
      }

      .cls-5 {
        fill: #f15a29;
      }

      .cls-6 {
        fill: #ed5f65;
      }

      .cls-7 {
        fill: #ee2a7b;
      }

      .cls-8 {
        fill: #ecdac7;
      }

      .cls-9 {
        fill: #f26e78;
      }

      .cls-10 {
        fill: #f26d78;
      }

      .cls-11 {
        fill: #fff;
      }

      .cls-12 {
        fill: #f1f2f2;
      }

      .cls-13 {
        fill: #e5e5e5;
      }

      .cls-14 {
        fill: #e5d61c;
      }

      .cls-15 {
        fill: #fbb040;
      }

      .cls-16 {
        fill: #fdc015;
      }

      .cls-17 {
        fill: #fdc98c;
      }

      .cls-18 {
        fill: #e4e0c4;
      }

      .cls-19 {
        fill: #9c9893;
      }

      .cls-20 {
        fill: #91cac6;
      }

      .cls-21 {
        fill: #88b8bd;
      }

      .cls-22 {
        fill: #89b8bd;
      }

      .cls-23 {
        fill: #9e968c;
      }

      .cls-24 {
        fill: #a0d8d0;
      }

      .cls-25 {
        fill: #8cb3cc;
      }

      .cls-26 {
        fill: #729db5;
      }

      .cls-27 {
        fill: #bce3de;
      }

      .cls-28 {
        fill: #ccc6be;
      }

      .cls-29 {
        fill: #d1d3d4;
      }

      .cls-30 {
        fill: #d4ede8;
      }

      .cls-31 {
        fill: #e1e430;
      }

      .cls-32 {
        fill: #d4eaed;
      }

      .cls-33, .cls-34, .cls-35 {
        fill: #231f20;
      }

      .cls-36 {
        fill: #1c75bc;
      }

      .cls-37 {
        fill: #414042;
      }

      .cls-38 {
        fill: #3dbdac;
      }

      .cls-39 {
        fill: #94cb70;
      }

      .cls-40 {
        fill: #6bc7b9;
      }

      .cls-41 {
        fill: #59c3b5;
      }

      .cls-42 {
        fill: #384ca0;
      }

      .cls-43 {
        fill: #38ac88;
      }

      .cls-34 {
        opacity: .2;
      }

      .cls-34, .cls-44, .cls-35 {
        mix-blend-mode: multiply;
      }

      .cls-44, .cls-35 {
        opacity: .1;
      }

      .cls-45 {
        isolation: isolate;
      }
    </style>
  </defs>
  <g class="cls-45">
    <g id="Layer_2" data-name="Layer 2">
      <g id="revisi">
        <g>
          <g>
            <g>
              <path class="cls-20" d="m440.11,218.15c28.76,50.45,11.2,114.68-39.26,143.44-50.46,28.77-114.68,11.2-143.46-39.26-28.76-50.46-11.19-114.68,39.27-143.45,50.45-28.76,114.67-11.19,143.45,39.27Z"/>
              <polygon class="cls-20" points="426.87 393.29 408.2 403.93 375.99 347.44 394.66 336.79 426.87 393.29"/>
              <path class="cls-43" d="m561.74,613.04c5.87,10.31,2.28,23.43-8.03,29.31h0c-10.31,5.88-23.44,2.28-29.32-8.02l-120.98-213.5c-5.87-10.3-2.29-23.43,8.02-29.31h0c10.31-5.88,23.44-2.29,29.32,8.01l120.98,213.5Z"/>
              <path class="cls-30" d="m422.99,227.9c23.39,41.01,9.1,93.21-31.91,116.59-41,23.38-93.2,9.09-116.58-31.91-23.38-41-9.09-93.2,31.91-116.59,41.01-23.39,93.2-9.09,116.58,31.91Z"/>
              <polygon class="cls-20" points="504.23 511.57 467.42 532.35 455.77 511.71 492.57 490.93 504.23 511.57"/>
              <path class="cls-11" d="m422.99,227.9c-16.34-28.65-46.75-44.24-77.58-43.06,8.01,2.87,15.67,6.62,22.73,10.86,41.61,23.92,57.21,76.97,40.57,120.66-3.54,10.03-9.09,19.14-16.06,27.19,39.79-23.81,53.43-75.17,30.34-115.64Z"/>
              <path class="cls-11" d="m270.9,257.48c0,9.79,3.63,17.73,8.1,17.73s8.1-7.94,8.1-17.73-3.63-17.73-8.1-17.73-8.1,7.94-8.1,17.73Z"/>
            </g>
            <g>
              <path class="cls-43" d="m120.95,577.06c4.03,3.2,9.89,2.54,13.09-1.49l58-72.91c3.21-4.02,2.54-9.89-1.5-13.1h0c-4.03-3.21-9.89-2.54-13.09,1.5l-58,72.91c-3.21,4.03-2.54,9.89,1.49,13.1h0Z"/>
              <polygon class="cls-20" points="319.43 534.1 334.89 514.84 276.6 468.06 261.15 487.32 319.43 534.1"/>
              <path class="cls-43" d="m590.65,763.66c10.64,8.54,26.18,6.84,34.72-3.8h0c8.53-10.63,6.83-26.19-3.81-34.72l-266.61-212.67c-10.63-8.53-26.18-6.84-34.72,3.8h0c-8.53,10.63-6.83,26.19,3.8,34.72l266.61,212.67Z"/>
              <polygon class="cls-20" points="485.9 680.06 516.14 642.04 494.82 625.08 464.59 663.1 485.9 680.06"/>
              <path class="cls-20" d="m168.02,515.58c28.19,22.42,69.21,17.74,91.64-10.43l35.68-44.88c22.43-28.18,17.76-69.21-10.43-91.63h0c-28.18-22.43-69.22-17.75-91.64,10.44l-35.69,44.87c-22.42,28.19-17.75,69.22,10.44,91.64h0Z"/>
            </g>
          </g>
          <g class="cls-44">
            <path class="cls-33" d="m561.74,613.04l-58.78-103.73-10.38-18.38h-.03s-51.79-91.38-51.79-91.38c-3.56-6.24-9.78-9.99-16.42-10.7l-17.6-30.88c45.9-30.26,60.99-91.39,33.37-139.82-11.03-19.35-27.28-33.85-45.96-42.77,26.73,16.62,46.32,44.47,49.93,77.53,3.12,26-2.08,52.01-18.72,71.77-15.59,17.9-36,38.69-58.72,49.19,7.11-1.23,14.16-3.18,21.05-5.93l2.73,4.79c8.77-4.31,16.6,5.27,23.5,10.2-4.97,0-10.68,2.23-14.25,6.01l4.98,8.74c-3.33,4.64-4.69,10.47-3.73,16.14,2.61-7.64,13.32-11.85,15.08-10.08,8.52,16.43,9.91,34.63,7.73,52.95l100.67,177.66c5.88,10.29,19.01,13.89,29.32,8.02,10.31-5.88,13.9-19,8.03-29.31Z"/>
            <path class="cls-33" d="m161.33,511.33l-3.43,4.32c5.74,2.24,10.84,6.52,14.44,11.79l4.11-5.17c-3.47-2.76-6.78-5.52-10.09-8.28-1.64-.55-3.56-1.38-5.02-2.66Z"/>
            <path class="cls-33" d="m354.95,512.46c-7.77-6.23-18.16-7-26.53-2.82l-44.16-35.44,11.08-13.94c22.43-28.18,17.76-69.21-10.43-91.63-16.74-13.32-38.01-17.08-57.22-12.03,37.25,6.24,70.9,40.13,65.55,79.37-4.16,26-20.8,44.73-38.49,63.45-19.1,18.19-45.36,20.48-70.43,25.63,26.06,10.47,56.94,3.19,75.33-19.91l9.23-11.61,45.95,36.87c-.02.48-.04.95-.03,1.43,7.72-5.42,19.58-4.86,28.37-1.2,21.75,8.77,43.37,18.15,64.44,28.55.62-1.09,1.17-2.22,1.63-3.4l-54.3-43.31Z"/>
            <path class="cls-33" d="m409.25,555.78c-.47,1.18-1.01,2.31-1.63,3.4,5.46,2.7,10.9,5.44,16.28,8.28l-14.65-11.68Z"/>
            <path class="cls-33" d="m621.56,725.13l-197.66-157.67c-5.38-2.84-10.82-5.59-16.28-8.28-2.86,4.99-7.36,8.94-13.47,10.98-10.4,3.12-20.8,1.04-31.21,3.12-2.48.74-5.01,1.66-7.45,2.8l235.16,187.57c10.64,8.54,26.18,6.84,34.72-3.8,8.53-10.63,6.83-26.19-3.81-34.72Z"/>
          </g>
          <path class="cls-35" d="m49.67,1122.63c0,15.43,13.12,27.94,29.3,27.94h1358.11c16.18,0,29.3-12.51,29.3-27.94h0c0-15.43-13.12-27.93-29.3-27.93H78.97c-16.18,0-29.3,12.51-29.3,27.93h0Z"/>
          <g>
            <path class="cls-18" d="m454.67,932.09s6.74-8.26-21.2,22.6c-23.15,25.56-24.93,56.76-24.86,66.71,2.48-9.21,11.07-24.23,11.07-24.23,4.4-29.05,34.98-65.08,34.98-65.08Z"/>
            <path class="cls-18" d="m304.05,628.82c3.21-2.59,5.91-5.04,8.17-7.34,7.17-5.5,14.76-10.96,22.55-16.05,0,0,0,0,0,0-35.35,19.55-53.79,49.24-74.36,57.82-17.39,20.96-42.59,42.84-79.08,60.91,0,0,58.56-13.58,122.73-95.35Z"/>
            <path class="cls-11" d="m400.26,579.09c-20.27.74-43.67,12.07-65.49,26.34-7.79,5.09-15.38,10.56-22.55,16.05-2.26,2.3-4.97,4.75-8.17,7.34-64.17,81.76-122.73,95.35-122.73,95.35,36.48-18.07,61.69-39.95,79.08-60.91-18.13,6.98-33.4-10.28-83.01,7.22-79.36,27.99-112.75,79.55-109,140.31,3.75,60.76,82.59,120.79,82.59,120.79,45.11,37.45,83.45,41.45,100.14,91.68,16.69,50.23,55.15,85.98,87.79,87.8,58.31,3.24,63.43-45.01,68.74-80.39.31-2.04.51-5.41.97-9.27-.07-9.95,1.71-41.15,24.86-66.71,27.94-30.85,21.2-22.6,21.2-22.6,0,0-30.58,36.03-34.98,65.08,6.59-3.65,17.11-2.18,34.13,10.38,31.75,23.44,53.82,37.09,80.37,11.01,20.07-19.71,25.84-55.23-8.87-135.07-34.71-79.84,15.93-129.73,7.91-192.11-8.01-62.38-58.77-114.99-132.97-112.28Z"/>
          </g>
          <g>
            <path class="cls-18" d="m810.86,99.2s1.67.04-4.83-.45c-5.38-.41-9.41,2.37-10.63,3.33,1.38-.58,4.06-.96,4.06-.96,4.01-2.25,11.4-1.93,11.4-1.93Z"/>
            <path class="cls-18" d="m833.88,51.46c.63.15,1.19.25,1.69.3,1.37.36,2.77.77,4.15,1.25h0c-5.81-2.49-11.25-1.92-14.29-3.64-4.26-.14-9.39-1.15-15.12-3.92,0,0,7.3,5.93,23.57,6.01Z"/>
            <path class="cls-11" d="m849.27,58.57c-2.04-2.43-5.69-4.24-9.55-5.57-1.38-.47-2.78-.89-4.15-1.25-.5-.06-1.06-.16-1.69-.3-16.27-.08-23.57-6.01-23.57-6.01,5.74,2.77,10.86,3.79,15.12,3.92-2.6-1.57-1.94-5.12-8.86-9.57-11.08-7.12-20.66-6.3-27.81,0-7.15,6.3-7,21.81-7,21.81-.3,9.17,2.89,14.3-1.72,21.18-4.61,6.89-5.33,15.07-2.42,19.28,5.2,7.52,11.66,3.52,16.54.78.28-.16.72-.46,1.24-.77,1.22-.96,5.25-3.74,10.63-3.33,6.5.49,4.83.45,4.83.45,0,0-7.39-.32-11.4,1.93,1.08.46,1.91,1.91,1.99,5.22.15,6.18.58,10.21,6.36,10.99,4.36.59,9.31-2.11,15.84-14.07,6.54-11.96,17.57-10.49,24.51-17.47,6.94-6.98,8.57-18.31,1.11-27.22Z"/>
          </g>
          <g>
            <g>
              <rect class="cls-11" x="903.3" y="610.85" width="220.79" height="491.96"/>
              <g>
                <rect class="cls-24" x="924.01" y="661.26" width="48.47" height="48.47"/>
                <rect class="cls-24" x="985.56" y="661.26" width="48.47" height="48.47"/>
                <rect class="cls-24" x="1047.12" y="661.26" width="48.47" height="48.47"/>
                <rect class="cls-24" x="924.01" y="725.99" width="48.47" height="48.47"/>
                <rect class="cls-24" x="985.56" y="725.99" width="48.47" height="48.47"/>
                <rect class="cls-24" x="1047.12" y="725.99" width="48.47" height="48.47"/>
                <rect class="cls-24" x="924.01" y="790.72" width="48.47" height="48.47"/>
                <rect class="cls-24" x="985.56" y="790.72" width="48.47" height="48.47"/>
                <rect class="cls-24" x="1047.12" y="790.72" width="48.47" height="48.47"/>
                <rect class="cls-24" x="924.01" y="855.45" width="48.47" height="48.47"/>
                <rect class="cls-24" x="985.56" y="855.45" width="48.47" height="48.47"/>
                <rect class="cls-24" x="1047.12" y="855.45" width="48.47" height="48.47"/>
                <rect class="cls-24" x="924.01" y="920.18" width="48.47" height="48.47"/>
                <rect class="cls-24" x="985.56" y="920.18" width="48.47" height="48.47"/>
                <rect class="cls-24" x="1047.12" y="920.18" width="48.47" height="48.47"/>
                <rect class="cls-24" x="924.01" y="984.91" width="48.47" height="48.47"/>
                <rect class="cls-24" x="985.56" y="984.91" width="48.47" height="48.47"/>
                <rect class="cls-24" x="1047.12" y="984.91" width="48.47" height="48.47"/>
              </g>
            </g>
            <g>
              <rect class="cls-11" x="1109.92" y="464.42" width="262.34" height="640.15"/>
              <g>
                <rect class="cls-24" x="1134.54" y="524.31" width="57.59" height="57.59"/>
                <rect class="cls-24" x="1207.67" y="524.31" width="57.59" height="57.59"/>
                <rect class="cls-24" x="1280.8" y="524.31" width="57.59" height="57.59"/>
                <rect class="cls-24" x="1134.54" y="601.22" width="57.59" height="57.59"/>
                <rect class="cls-24" x="1207.67" y="601.22" width="57.59" height="57.59"/>
                <rect class="cls-24" x="1280.8" y="601.22" width="57.59" height="57.59"/>
                <rect class="cls-24" x="1134.54" y="678.13" width="57.59" height="57.59"/>
                <rect class="cls-24" x="1207.67" y="678.13" width="57.59" height="57.59"/>
                <rect class="cls-24" x="1280.8" y="678.13" width="57.59" height="57.59"/>
                <rect class="cls-24" x="1134.54" y="755.04" width="57.59" height="57.59"/>
                <rect class="cls-24" x="1207.67" y="755.04" width="57.59" height="57.59"/>
                <rect class="cls-24" x="1280.8" y="755.04" width="57.59" height="57.59"/>
                <rect class="cls-24" x="1134.54" y="831.95" width="57.59" height="57.59"/>
                <rect class="cls-24" x="1207.67" y="831.95" width="57.59" height="57.59"/>
                <rect class="cls-24" x="1280.8" y="831.95" width="57.59" height="57.59"/>
                <rect class="cls-24" x="1134.54" y="908.86" width="57.59" height="57.59"/>
                <rect class="cls-24" x="1207.67" y="908.86" width="57.59" height="57.59"/>
                <rect class="cls-24" x="1280.8" y="908.86" width="57.59" height="57.59"/>
              </g>
            </g>
            <g>
              <path class="cls-41" d="m1195.22,444.73c.67-.66,1.51-.98,2.54-.97l24.7.21.21-24.7c0-1.03.35-1.87,1.01-2.53.67-.65,1.51-.98,2.54-.97l21.18.18c1.03,0,1.87.35,2.53,1.01.65.67.98,1.52.97,2.55l-.21,24.7,24.7.21c1.03,0,1.87.35,2.53,1.01.66.67.98,1.52.97,2.55l-.18,21.17c0,1.03-.35,1.87-1.01,2.53-.67.66-1.52.98-2.55.97l-24.7-.21-.21,24.7c0,1.03-.35,1.87-1.01,2.53-.67.66-1.52.98-2.54.97l-21.17-.18c-1.03-.01-1.87-.35-2.53-1.02-.66-.67-.98-1.51-.97-2.54l.21-24.7-24.7-.21c-1.03,0-1.87-.35-2.53-1.01-.66-.67-.98-1.52-.97-2.55l.18-21.18c0-1.03.35-1.87,1.01-2.53Z"/>
              <path class="cls-35" d="m1236.46,415.85l10.95.09c1.03,0,1.87.35,2.53,1.01.65.67.98,1.52.97,2.55l-.21,24.7,24.7.21c1.03,0,1.87.35,2.53,1.01.66.67.98,1.52.97,2.55l-.18,21.17c0,1.03-.35,1.87-1.01,2.53-.67.66-1.52.98-2.55.97l-24.7-.21-.21,24.7c0,1.03-.35,1.87-1.01,2.53-.67.66-1.52.98-2.54.97l-10.23-.09v-84.7Z"/>
            </g>
          </g>
          <g>
            <path class="cls-12" d="m1266.83,267.21s5.46,39.31,43.02,43.02c-37.56,3.71-43.02,43.02-43.02,43.02,0,0-5.46-39.31-43.02-43.02,37.56-3.71,43.02-43.02,43.02-43.02Z"/>
            <path class="cls-12" d="m1229.38,327.19s3.03,21.81,23.87,23.87c-20.84,2.06-23.87,23.87-23.87,23.87,0,0-3.03-21.81-23.87-23.87,20.84-2.06,23.87-23.87,23.87-23.87Z"/>
          </g>
          <g>
            <path class="cls-12" d="m43.02,591.32s-5.46,39.31-43.02,43.02c37.56,3.71,43.02,43.02,43.02,43.02,0,0,5.46-39.31,43.02-43.02-37.56-3.71-43.02-43.02-43.02-43.02Z"/>
            <path class="cls-12" d="m80.47,651.3s-3.03,21.81-23.87,23.87c20.84,2.06,23.87,23.87,23.87,23.87,0,0,3.03-21.81,23.87-23.87-20.84-2.06-23.87-23.87-23.87-23.87Z"/>
          </g>
          <path class="cls-39" d="m663.81,18.61c-.64-.64-1.42-.97-2.34-.96h-14.33V3.31c0-.92-.32-1.7-.96-2.34-.64-.64-1.42-.97-2.34-.97h-6.62c-.92,0-1.7.32-2.34.97-.64.64-.96,1.43-.96,2.34v14.33h-14.33c-.92,0-1.7.32-2.34.96-.64.64-.97,1.42-.97,2.34v6.61c0,.92.32,1.7.97,2.34.64.64,1.42.97,2.34.97h14.33v14.33c0,.92.32,1.7.97,2.34.64.64,1.43.96,2.34.96h6.61c.92,0,1.7-.32,2.34-.96.64-.64.96-1.42.96-2.34v-14.33h14.33c.92,0,1.7-.32,2.34-.97.64-.64.97-1.42.97-2.34v-6.61c0-.92-.32-1.7-.97-2.34Z"/>
          <path class="cls-6" d="m1005.53,59.92c-6.56-19.67-24.36,1.87-24.36,14.05-11.24-10.31-52.47-16.87-40.29,9.37,7.5,14.05,31.86,12.18,44.03,14.05l.94,2.81c6.56-9.37,24.36-26.23,19.67-40.29Z"/>
          <g>
            <rect class="cls-37" x="1049.25" y="100.87" width="29.47" height="26.94" transform="translate(35.36 409.4) rotate(-22.14)"/>
            <rect class="cls-12" x="1053.85" y="126.78" width="31.07" height="2.4" transform="translate(30.62 412.44) rotate(-22.14)"/>
            <rect class="cls-12" x="1058.95" y="128.75" width="25.2" height="9.07" transform="translate(28.79 413.69) rotate(-22.14)"/>
            <polygon class="cls-38" points="1038.79 164.76 1116.23 133.25 1100.62 126.36 1045.16 148.92 1038.79 164.76"/>
            <polygon class="cls-38" points="1049.19 190.33 1126.64 158.82 1124.2 165.57 1055.65 193.46 1049.19 190.33"/>
            <rect class="cls-40" x="1040.91" y="147.98" width="83.61" height="27.6" transform="translate(18.86 419.97) rotate(-22.14)"/>
            <polygon class="cls-38" points="1090.37 291.55 1167.82 260.04 1160.77 274.21 1105.31 296.77 1090.37 291.55"/>
            <polygon class="cls-38" points="1079.97 265.98 1157.42 234.47 1150.96 231.34 1082.41 259.23 1079.97 265.98"/>
            <rect class="cls-40" x="1082.09" y="249.21" width="83.61" height="27.6" transform="translate(-16.25 442.96) rotate(-22.14)"/>
            <rect class="cls-38" x="1066.17" y="176.89" width="74.28" height="71.01" transform="translate(1.3 431.45) rotate(-22.14)"/>
            <rect class="cls-31" x="1070.08" y="181.83" width="67.51" height="61.8" transform="translate(1.22 431.68) rotate(-22.14)"/>
            <rect class="cls-11" x="1048.83" y="151.79" width="69" height="17.1" transform="translate(19.45 420.08) rotate(-22.14)"/>
            <polygon class="cls-35" points="1049.19 190.33 1126.64 158.82 1124.2 165.57 1055.65 193.46 1049.19 190.33"/>
            <polygon class="cls-35" points="1079.97 265.98 1157.42 234.47 1150.96 231.34 1082.41 259.23 1079.97 265.98"/>
            <polygon class="cls-35" points="1090.37 291.55 1167.82 260.04 1160.77 274.21 1105.31 296.77 1090.37 291.55"/>
            <rect class="cls-35" x="1057.63" y="129.01" width="25.2" height="2.08" transform="translate(29.91 412.95) rotate(-22.14)"/>
            <rect class="cls-12" x="1070.03" y="192.63" width="61.5" height="25.2" transform="translate(3.82 429.98) rotate(-22.14)"/>
            <rect class="cls-12" x="1081.3" y="219.11" width="51.17" height="4.2" transform="translate(-1.75 433.46) rotate(-22.14)"/>
            <rect class="cls-12" x="1084.92" y="228" width="51.17" height="4.2" transform="translate(-4.84 435.46) rotate(-22.14)"/>
            <g class="cls-44">
              <path class="cls-33" d="m1038.79,164.76l6.37-15.84,16.43-6.68-2.63-6.47-.78-1.93-2.72,1.11-.91-2.22.86-.35-10.15-24.95,5.58-2.27c-.56,1.9-.57,4,.02,6.04,1.52,5.86,3.52,11.31,6.78,16.67.86,1.59,2.32,2.51,4.17,1.76.3.74.86,1.59.72,2.3-.5,4.09,1.27,7.91,2.71,11.42-5.97,1.78-12.26,5.42-13.04,12-1.13,9.96,3.27,19.18,8.19,27.55.57,1.14,1.83,1.54,3.27,1.55l-14.46,5.88-10.4-25.57Z"/>
              <path class="cls-33" d="m1095.45,259.68c0,.17,0,.33.04.49.77,5.08,3.14,9.3,6.13,13.48,1.53,2.18,3.22,4.74,5.12,5.69,7.98,3.71,16.15,5.91,24.39,6.92l-25.82,10.51-14.94-5.22-10.4-25.57,15.48-6.3Z"/>
              <path class="cls-33" d="m1082.41,259.23l-.12.05-26.76-65.77.12-.05-6.46-3.13,14.46-5.88,5.35-2.18s-1.91,4.38-2.2,5.79c-.54,3.46.82,6.79,1.58,9.72,6.1,19.76,19.49,59.23,19.49,59.23l8.18-2.9s-.55,3.65-.6,5.57l-15.48,6.3,2.44-6.75Z"/>
            </g>
          </g>
          <g>
            <g>
              <path class="cls-2" d="m774.01,237.22l-18.55.03c.01,7.62-6.16,13.81-13.79,13.83-7.63,0-13.82-6.16-13.83-13.79l-18.55.02-24.82,70.83,57.28-.08,57.28-.08-25.01-70.76Z"/>
              <g>
                <path class="cls-17" d="m1026.55,1109.17l-567.49.75c-15.09.02-27.34-12.2-27.36-27.29l-1-750.56c-.02-15.09,12.2-27.34,27.29-27.36l567.48-.75c15.09-.02,27.34,12.2,27.36,27.29l1,750.56c.02,15.09-12.2,27.34-27.29,27.36Z"/>
                <rect class="cls-11" x="461.33" y="334.12" width="561.9" height="745.3" transform="translate(-.94 .99) rotate(-.08)"/>
                <circle class="cls-27" cx="753.7" cy="614.75" r="195.16" transform="translate(-213.94 713) rotate(-45)"/>
                <g>
                  <path class="cls-16" d="m741.6,201.19c-19.93.03-36.06,16.2-36.03,36.13.03,19.93,16.2,36.07,36.13,36.04,19.93-.02,36.07-16.21,36.04-36.13-.03-19.93-16.2-36.06-36.13-36.03Zm.07,49.89c-7.63,0-13.82-6.16-13.83-13.79-.01-7.63,6.16-13.82,13.79-13.83,7.63,0,13.82,6.16,13.83,13.79.01,7.62-6.16,13.81-13.79,13.83Z"/>
                  <rect class="cls-16" x="620.71" y="291.51" width="242.14" height="78.1" transform="translate(-.43 .98) rotate(-.08)"/>
                </g>
              </g>
            </g>
            <rect class="cls-13" x="529.73" y="857" width="146.33" height="146.33" transform="translate(-1.23 .8) rotate(-.08)"/>
            <g>
              <rect class="cls-13" x="710.59" y="887.65" width="248.43" height="31.35" transform="translate(-1.2 1.11) rotate(-.08)"/>
              <rect class="cls-13" x="710.66" y="940.71" width="248.43" height="31.36" transform="translate(-1.27 1.11) rotate(-.08)"/>
            </g>
            <g>
              <path class="cls-11" d="m849.24,507.67c-13.53-6.11-34.53-4.19-52.7-.63-1.65.57-3.54,1.1-5.71,1.59-50.61,24.12-82.16,16.64-82.16,16.64,21.96.02,39.39-4.51,52.81-10.47-10.43-.98-13.67-12.98-41.84-16.42-45.05-5.51-73.55,11.39-86.31,41.65-12.76,30.26,10.94,78.16,10.94,78.16,12.81,28.91,30.38,40.04,26.4,68.31-3.98,28.27,6.03,54.77,21.37,63.47,27.4,15.55,41.44-6.54,52.49-22.36.64-.91,1.55-2.49,2.69-4.25,2.35-4.83,10.69-19.47,28.01-26.27,20.9-8.21,15.66-5.83,15.66-5.83,0,0-23.41,10.07-32.51,23.05,4.06-.18,8.79,3.05,14,13.2,9.72,18.94,17.11,30.83,36.19,24.59,14.42-4.71,25.73-20.49,28.1-67.38,2.37-46.9,38.8-58.86,49.89-90.92,11.09-32.06-.82-69.65-37.32-86.13Z"/>
              <path class="cls-39" d="m902.09,575.45c0,2.59-.9,4.79-2.71,6.6l-70.16,70.35-13.18,13.21c-1.81,1.82-4.01,2.72-6.6,2.73-2.59,0-4.79-.9-6.6-2.71l-13.21-13.18-35.18-35.08c-1.81-1.81-2.72-4-2.73-6.6,0-2.58.9-4.78,2.71-6.6l13.18-13.21c1.81-1.81,4.01-2.72,6.59-2.72,2.59,0,4.79.9,6.6,2.71l28.57,28.59,63.57-63.84c1.81-1.82,4.01-2.72,6.6-2.73,2.59,0,4.79.9,6.6,2.71l13.21,13.17c1.81,1.81,2.72,4.01,2.72,6.59Z"/>
            </g>
          </g>
          <g>
            <polygon class="cls-5" points="1318.84 924.01 1379.8 917.46 1365.6 869.6 1362.6 815.21 1314.29 820.41 1323.83 872.22 1318.84 924.01"/>
            <path class="cls-8" d="m1331.32,819.74c.44,4.05,4.07,6.98,8.13,6.55h0c4.05-.44,6.98-4.08,6.55-8.13l-.94-8.77c-.44-4.05-4.07-6.98-8.13-6.55h0c-4.05.43-6.98,4.07-6.55,8.13l.94,8.77Z"/>
            <path class="cls-8" d="m1300.16,792.67c1.58,14.73,14.81,25.38,29.53,23.8,14.73-1.58,25.38-14.81,23.8-29.53-1.58-14.73-14.89-26-29.53-23.8-30.82,4.64-7.01,30.8-23.8,29.53Z"/>
            <path class="cls-5" d="m1394.07,878.45c-4.96,3.03-7.85,4.99-14.72-4.37-9.68-13.19-21.45-32.14-26.23-39.42-4.78-7.28-6.89-12.22,3.81-18.17,6.26-3.49,13.12,2.4,16.81,8.46l21.58,38.93c3.7,6.06,3.71,11.55-1.26,14.58h0Z"/>
            <polygon class="cls-5" points="1421.16 936.13 1379.34 874.08 1395.32 863.88 1426.34 932.91 1421.16 936.13"/>
            <path class="cls-8" d="m1421.06,950.7c-.39,6.26,16.89,3.56,17.62-2.67.74-6.23-2.63-14.2-8.86-14.94-6.23-.73-9.8,2.55-12.41,8.34-3.42,7.58,4.05,2.63,3.64,9.26Z"/>
            <path class="cls-5" d="m1303.07,889.88c-5.54-1.76-8.92-2.66-6.36-13.98,3.61-15.96,10.2-37.27,12.56-45.65,2.36-8.38,4.71-13.21,16.22-9.04,6.74,2.44,6.79,11.48,4.64,18.25l-15.24,41.82c-2.15,6.77-6.29,10.37-11.83,8.61h0Z"/>
            <polygon class="cls-5" points="1277.3 948.16 1296.72 875.9 1314.91 881.27 1283.13 949.96 1277.3 948.16"/>
            <path class="cls-8" d="m1266.24,957.64c-4.98,3.81,8.39,15.08,13.57,11.55,5.18-3.53,9-11.3,5.47-16.48-3.53-5.18-8.35-5.72-14.44-3.89-7.97,2.39.67,4.78-4.6,8.82Z"/>
            <rect class="cls-36" x="1319.82" y="920.68" width="61.31" height="21.56" transform="translate(-91.85 149.74) rotate(-6.14)"/>
            <polygon class="cls-36" points="1378.17 998.8 1363.99 1002.28 1355.88 941.72 1382.1 938.9 1378.17 998.8"/>
            <polygon class="cls-36" points="1399.37 1075.96 1390.16 1079.1 1363.99 1002.28 1377.89 997.54 1399.37 1075.96"/>
            <path class="cls-11" d="m1307.95,804.07l11.45-1.23c1.06,5.06-5.93,11.31-11.45,1.23Z"/>
            <path class="cls-15" d="m1390.16,1079.1c-4.22,13.84-23,16.06-19.22,27.16,6.92-2.36,17.78-6.06,25.51-8.7-.02-.04-.03-.09-.05-.12,0,0-1.23-8.16.39-8.71,1.62-.55,3.38.31,3.93,1.94l1.59,4.91c2.08-.71,3.35-1.14,3.35-1.14l-6.46-18.97-9.05,3.64Z"/>
            <polygon class="cls-36" points="1334.11 1005.34 1319.44 1004.58 1321.15 945.45 1348.25 942.02 1334.11 1005.34"/>
            <polygon class="cls-36" points="1324.95 1086.13 1315.24 1085.62 1319.44 1004.58 1334.11 1005.34 1324.95 1086.13"/>
            <path class="cls-15" d="m1315.24,1085.62c-9.06,11.28-27.32,6.38-27.93,18.09,7.3.38,18.76.97,26.92,1.4,0-.05,0-.09,0-.13,0,0,1.89-8.03,3.6-7.95,1.71.09,3.02,1.55,2.93,3.26l-.35,5.14c2.19.11,3.54.18,3.54.18l1.04-20.01-9.75.02Z"/>
            <path class="cls-7" d="m1298.39,766.5c-.61-.49-.86-1.03-.94-1.77-.15-4.85,3.05-8.18,6.83-4.29,1.9,2.04,2.61,2.15,5.66.33,12.92-7.75,28.73-7.1,30.57-5.91,11.55-.86,24.36,13.09,25.59,24.59,1.62,15.09-8.88,28.69-23.68,31.1.28-2,.32-4.07.1-6.17-.14-1.3-.38-2.56-.7-3.78,1.14.46,2.4.65,3.7.51,4.25-.46,7.33-4.27,6.87-8.52-.46-4.25-4.27-7.33-8.52-6.87-3.28.35-5.86,2.72-6.65,5.73-1.05-2.4-5.9-3.88-7.83-13.95-.89-.27-1.67-.71-2.28-1.36.45,5.94-11.34,5.9-13.32,1.43,1.45,3.02-2.03,3.77-4.28,3.64-2.98.13-5.17-1.13-6.42-3.99-1.89,5.07-7.48,1.74-8.99-1.84-1.59-4.32,1.52-6.71,4.28-8.88Z"/>
            <path class="cls-7" d="m1363.03,781.56c10.5,15.93,23.1,1.85,28,19.54,6.82-8.33,8.91-20.45,5.52-29.07-3.25-8.25-9.08-12.33-18.17-13.21-18.8-1.81-20.45,15-15.35,22.73Z"/>
          </g>
          <g>
            <polygon class="cls-14" points="1218.09 1039.43 1258.06 1035.13 1256.27 984.94 1215.44 989.33 1218.09 1039.43"/>
            <path class="cls-8" d="m1229.18,989.19c.3,2.82,2.84,4.86,5.66,4.56h0c2.82-.3,4.86-2.84,4.56-5.66l-.66-6.11c-.3-2.82-2.84-4.86-5.66-4.56h0c-2.82.3-4.86,2.84-4.56,5.66l.66,6.11Z"/>
            <path class="cls-8" d="m1211.11,971.35c1.02,9.49,9.54,16.36,19.03,15.34,9.49-1.02,16.36-9.54,15.34-19.03-1.02-9.49-9.59-16.76-19.03-15.34-19.86,2.99-4.52,19.85-15.34,19.03Z"/>
            <path class="cls-14" d="m1271.04,981.36c-2.81-2.91-6.86-2.75-13.16,2.11-8.91,6.87-12.9,6.45-12.9,6.45-11.31,6.36-5.72,12.6.04,15.65,3.54,1.88,9.69,2.15,13.24-1.28l13.65-13.84c.76-1.46,1.94-6.17-.87-9.08h0Z"/>
            <rect class="cls-42" x="1218.78" y="1037.24" width="40.2" height="14.99" transform="translate(-104.62 138.48) rotate(-6.14)"/>
            <path class="cls-1" d="m1183.88,1099.31c7.03,2.46,20.84,7.29,20.84,7.29l3.98-11.38-5.64-1.64c-7.14,4.99-12.78-7.36-19.19,5.73Z"/>
            <polygon class="cls-42" points="1220.31 1071.08 1211.97 1068.16 1218.09 1039.43 1237.19 1052.21 1220.31 1071.08"/>
            <polygon class="cls-42" points="1208.59 1095.52 1203.07 1093.58 1211.97 1068.16 1220.31 1071.08 1208.59 1095.52"/>
            <rect class="cls-1" x="1193.75" y="1091.14" width="1.66" height="22.08" transform="translate(-240.29 1865.69) rotate(-70.71)"/>
            <path class="cls-1" d="m1279.89,1099.35c1.91-7.19,5.67-21.34,5.67-21.34l-11.66-3.1-1.2,5.75c5.52,6.73-6.36,13.31,7.18,18.69Z"/>
            <polygon class="cls-42" points="1255.73 1069.97 1246.94 1070.91 1244.03 1051.48 1259.64 1049.8 1255.73 1069.97"/>
            <polygon class="cls-42" points="1274.21 1075 1272.7 1080.66 1246.67 1073.73 1248.94 1065.19 1274.21 1075"/>
            <rect class="cls-1" x="1270.88" y="1087.63" width="22.08" height="1.67" transform="translate(-99.33 2047.74) rotate(-75.11)"/>
            <path class="cls-11" d="m1216.59,978.13l8-.86c.74,3.53-4.14,7.9-8,.86Z"/>
            <path class="cls-7" d="m1211.09,949.92c3.12,1.16,3.77,2.17,9.76.14,8.45-2.87,20.6-4.03,20.51-2.9,6.66,2.16,11.77,8.06,12.57,15.48,1.05,9.73-5.72,18.49-15.26,20.04.18-1.29.21-2.62.06-3.98-.09-.83-.24-1.65-.45-2.44.73.29,1.54.42,2.38.33,2.74-.3,4.72-2.75,4.43-5.49-.29-2.74-2.75-4.72-5.49-4.43-2.12.23-3.78,1.75-4.29,3.7-1.88-4.33-1.31-7.74-1.31-7.74-5.01,1.11-9.34,2.46-16.61,1.08-6.61-1.46-10.23-6.43-6.3-13.79Z"/>
            <path class="cls-14" d="m1211.88,1026.13c1.87-11.22-3.4-25.11-3.4-25.11-.15-12.97,11.72-13.84,17.25-10.38,3.4,2.13,7.44,8.21,6.25,13l-5.1,21.49c-1.19,4.8-10.52,6.51-14.99,1Z"/>
            <polygon class="cls-14" points="1195.54 1016.17 1225.36 1021.31 1217.48 1031.23 1194.79 1019.77 1195.54 1016.17"/>
            <polygon class="cls-14" points="1274.02 959.69 1259.48 983.06 1271.91 990.44 1279.11 962.81 1274.02 959.69"/>
            <path class="cls-8" d="m1273.98,954.22c-.9-4.1,10.81-4.1,11.93-.06,1.13,4.04-.27,9.67-4.31,10.8-4.04,1.13-6.75-.68-9.07-4.24-3.05-4.66,2.41-2.16,1.45-6.5Z"/>
            <path class="cls-8" d="m1188.38,1009.96c-2.86-3.08-9.52,6.55-6.84,9.78,2.68,3.23,8.1,5.28,11.33,2.6,3.23-2.68,3.29-5.93,1.68-9.87-2.1-5.16-3.14.75-6.17-2.51Z"/>
            <polygon class="cls-34" points="1217.56 1000.01 1217.48 1031.23 1213.84 1029.39 1217.56 1000.01"/>
            <rect class="cls-14" x="1247.55" y="985.6" width="7.85" height="50.09" transform="translate(-100.84 139.54) rotate(-6.14)"/>
          </g>
          <g>
            <g>
              <path class="cls-10" d="m557.76,218.43c-4.59-5.64-9.66-11.93-5-19.15,3.86-5.61,9.74-9.2,13.44-15.02,3.16-4.74,3.56-8.91,1.02-14.07-1.33-2.88-3.19-4.68-3.33-7.77-.25-3.69,1.65-4.96,3.59-7.76,8.93-11.62-2.05-23.73-14.72-23.78l-3.96-9.79c-6.07-.85-15.69,6.07-18.53,11.24-2.55,4.45-10.07,12.23-9.03,17.18.95,5.51,2.98,6.76-3.09,10.32-3.6,2.38-7.61,2.2-6.71,8.09.76,4.14,8.4,11.36,3.78,15.52-3.76,3.51-13.24-.13-13.57,7.7-.21,2.85,3.02,4.46,2.22,7.42-.85,3.34-5.26,3.29-7.76,4.67-6.66,3.68-7.96,11.56-1.87,16.07,2.81,1.93,5.34,3.05,4.97,7.04-.29,3.42-3.54,4.69-4.91,7.57-2.3,5.44,4.25,10.78,8.59,12.73,5.46,2.11,10.66,3.42,15.86,6.07,6.11,2.97,14.34.48,20.58-1.53,7.05-2.28,16.86-5.13,20.72-12.08,4.1-7.3,2.79-14.4-2.28-20.69Z"/>
              <polygon class="cls-21" points="619.22 290.9 625.88 311.55 598.36 311.55 586.41 300.13 579.9 292.54 585.03 282.5 600.66 281.25 619.22 290.9"/>
              <g>
                <g>
                  <g>
                    <path class="cls-32" d="m514.43,234.29c5.53-2.59,14.12-9.89,19.75-19.16,7.97-13.11,24.9-26.16,24.9-26.16,8.88-10.83-2.11-24.4-10.94-25.46-5.42-.65-13.38,2.01-16.22,8.12l-20.83,46.57c-7.11,13.32,3.34,16.09,3.34,16.09Z"/>
                    <polygon class="cls-25" points="580.8 263.93 534.42 263.93 543.16 216.25 543.98 163.42 585.15 163.42 589.85 211.34 582.9 222.09 580.8 263.93"/>
                    <g>
                      <rect class="cls-26" x="534.41" y="263.93" width="46.39" height="23.31"/>
                      <path class="cls-26" d="m606.56,313.57l14.03-7.06-86.18-42.57s-17.16,36.66,7.93,40.3c25.09,3.64,64.22,9.33,64.22,9.33Z"/>
                      <polygon class="cls-26" points="588.7 388.68 598.88 391.3 620.74 306.34 605.36 302.38 588.7 388.68"/>
                      <path class="cls-10" d="m598.88,391.3c5.69,14.56,26.12,15.41,22.96,27.69-7.65-1.97-19.66-5.06-28.21-7.26.01-.05.03-.1.04-.14,0,0,.65-8.9-1.14-9.36-1.79-.46-3.62.62-4.08,2.41l-1.3,5.42c-2.3-.59-3.71-.95-3.71-.95l5.4-20.98,10.05,3.17Z"/>
                      <polygon class="cls-26" points="645.36 290.9 648.02 275.25 580.8 263.93 575.22 290.87 645.36 290.9"/>
                      <polygon class="cls-26" points="635.18 362.23 645.69 362.62 648.02 275.25 633.01 274.37 635.18 362.23"/>
                      <path class="cls-10" d="m645.98,363.57c8.67,13.01,28.81,9.47,28.35,22.14-7.9-.29-20.29-.74-29.12-1.06,0-.05,0-.1.01-.14,0,0-1.27-8.83-3.11-8.9-1.85-.07-3.41,1.38-3.47,3.23l-.12,5.57c-2.37-.09-3.82-.14-3.82-.14l.79-21.65,10.5.95Z"/>
                    </g>
                    <polygon class="cls-32" points="556.74 165.2 557.6 311.55 514.43 311.55 543.98 163.42 562.44 163.42 556.74 165.2"/>
                    <path class="cls-34" d="m535.51,225.51l-2.08-9.17h0l-3.61,18.08c1.72,2.21,3.45,4.42,4.1,5.22,1.45,1.79,13.08,9.56,13.08,9.56,0,0,12.03,2.94,12.36,2.83.26-.09.85-2.59,1.09-3.71l.03-.61-24.98-22.2Z"/>
                    <path class="cls-34" d="m532.2,254.47c3.72-.57,22.18,3.01,22.18,3.01-.14-8.58-23.07-19-23.07-19l-2.26-.22-14.62,73.28s14.05-56.5,17.77-57.08Z"/>
                    <path class="cls-8" d="m571.08,164.55c0,3.96-3.21,7.17-7.17,7.17h0c-3.96,0-7.17-3.21-7.17-7.17v-8.57c0-3.96,3.21-7.17,7.17-7.17h0c3.96,0,7.17,3.21,7.17,7.17v8.57Z"/>
                    <path class="cls-32" d="m608,210.67c-5.14-15.03-11.4-30.42-14.55-38.26-3.15-7.85-5.92-12.27-16.61-7.04-6.25,3.06-5.36,11.79-2.58,18.1l19.06,38.8c2.78,6.31,6.8,9.24,11.97,6.96,0,0,6.35-7.88,2.71-18.55Z"/>
                    <polygon class="cls-32" points="571.08 163.1 580.8 263.93 612.85 269.33 581.57 163.1 571.08 163.1"/>
                    <polygon class="cls-32" points="556.58 249.41 517.43 211.65 514.43 234.29 554.38 257.48 556.58 249.41"/>
                    <path class="cls-8" d="m569.96,263.28c2.54,6.1,4-3.55,3.33-10.12-.67-6.57-6.14-6.04-12.72-5.37-6.57.67-6.22-.99-7.58,5.56-1.78,8.58,14.33,3.6,16.97,9.93Z"/>
                  </g>
                  <g>
                    <path class="cls-11" d="m554.43,256.49v2.52c0,.72.59,1.31,1.31,1.31h113.46c.73,0,1.31-.59,1.31-1.31v-60.17c0-.72-.58-1.31-1.31-1.31h-94c-.72,0-1.31.59-1.31,1.31v57.66h-19.45Zm81.34-30.99c0,4.78-3.88,8.66-8.66,8.66-3.34,0-6.23-1.89-7.68-4.67.11,0,.22.02.33.02,4.78,0,8.65-3.88,8.65-8.66,0-1.44-.35-2.8-.98-3.99,4.63.17,8.33,3.97,8.33,8.64Z"/>
                    <path class="cls-28" d="m627.11,234.16c-3.34,0-6.23-1.89-7.68-4.67.11,0,.22.02.33.02,4.78,0,8.65-3.88,8.65-8.66,0-1.44-.35-2.8-.98-3.99,4.63.17,8.33,3.97,8.33,8.64s-3.88,8.66-8.66,8.66Z"/>
                  </g>
                </g>
                <g>
                  <path class="cls-8" d="m594.27,130.59c2.94,14.02-6.05,27.77-20.06,30.7-14.02,2.94-27.77-6.05-30.7-20.06-2.94-14.02,5.94-28.36,20.07-30.7,29.73-4.93,15.64,26.24,30.7,20.06Z"/>
                  <path class="cls-11" d="m590.5,143.4l-10.9,2.28c.54,4.97,8.83,8.64,10.9-2.28Z"/>
                  <path class="cls-10" d="m594.29,111.23c.54-.54.72-1.08.72-1.8-.36-4.68-3.78-7.56-7.01-3.42-1.62,2.16-2.29,2.34-5.41.9-13.23-6.12-28.36-3.86-30-2.53-11.19.37-22.07,15.1-22.07,26.29,0,14.68,11.5,26.67,25.98,27.46-.48-1.9-.73-3.88-.73-5.92,0-1.26.1-2.5.28-3.71-1.04.55-2.24.87-3.5.87-4.13,0-7.48-3.35-7.48-7.48s3.35-7.48,7.48-7.48c3.19,0,5.91,2,6.99,4.82.76-2.42,5.27-4.34,6.08-14.23.82-.35,1.54-.85,2.05-1.54.18,5.76,11.51,4.5,12.95,0-1.08,3.06,2.34,3.42,4.5,3.06,2.88-.18,4.86-1.62,5.76-4.5,2.34,4.68,7.37.9,8.46-2.7,1.08-4.32-2.16-6.3-5.04-8.09Z"/>
                </g>
              </g>
            </g>
            <g>
              <path class="cls-32" d="m587.67,111.19c0,1.03-.84,1.87-1.87,1.87h-27.34c-1.03,0-1.87-.84-1.87-1.87,0,0,1.2-13.47,8.39-13.47h13.55c9.14,0,9.14,13.47,9.14,13.47Z"/>
              <path class="cls-9" d="m576.66,103.97c.13.11.2.24.22.41l.11,1.21c.02.17-.03.31-.14.44-.11.13-.25.2-.41.22l-2.61.24.23,2.61c.02.17-.03.31-.14.44-.11.13-.25.2-.41.22l-1.21.11c-.17.02-.31-.03-.44-.14-.13-.11-.2-.24-.21-.41l-.24-2.61-2.61.24c-.17.02-.31-.03-.44-.14-.13-.11-.2-.24-.22-.41l-.11-1.21c-.01-.17.03-.31.14-.44.11-.13.24-.2.41-.22l2.61-.24-.23-2.61c-.02-.17.03-.31.14-.44.11-.13.24-.2.41-.22l1.21-.11c.17-.02.31.03.44.14.13.11.2.24.22.41l.23,2.61,2.61-.24c.17-.01.31.03.44.14Z"/>
            </g>
          </g>
          <g>
            <path class="cls-10" d="m272.06,1111.21c7.85-.96,16.04-1.1,24.99,0h159.84c.61-1.48,1.18-3.04,1.71-4.71,1.71-5.34,2.48-10.96,2.29-16.58-.15-4.45-.9-8.9-2.25-13.21-2.65-8.44-2.61-15.96-3.08-25.01-.09-1.64-1.09-2.98-2.26-2.98H101.44c-1.16,0-2.17,1.33-2.26,2.98-1.06,20.03-2.18,42.18,4.84,59.52h168.03Z"/>
            <path class="cls-35" d="m453.31,1048.71H101.44c-1.16,0-2.17,1.33-2.26,2.98-.07,1.3-.14,2.62-.21,3.94.05,0,.1,0,.15,0,.21-.21.42-.42.63-.63,1.46-.21,2.5,0,3.75.63v.62h.63c-.42,1.46,1.46,1.04,1.88,1.88,1.67,2.92.83,6.04,1.46,9.38.21,1.04.83,2.08,1.67,3.13.21.42-.21,1.04,0,1.25,3.54,3.33,6.67,7.92,11.88,7.5.21,0,.42.63.62.63,2.29.21,4.58.42,6.88-.21,4.38-1.25,7.71-3.96,11.67-6.46,1.25-.63,2.92-.84,3.96-2.08.21-.21.83.21,1.25,0v-.63c2.92.21,6.04-.62,8.33,1.67,2.92,2.71,7.09,3.33,11.04,3.33.42,0,.83.63,1.25.63,6.67.62,12.92.21,18.55-3.96.21,0,.42-.83.83-1.04,1.88-.42,2.5-2.29,3.13-3.75h.63c.21-.42,0-1.04,0-1.04,5-1.04,9.17,1.04,12.71,4.58.21.42,1.04,0,1.67.21v.62c.62.21,1.04.21,1.88.42,3.33.83,6.67.83,10,0,.63-.21,1.88,0,2.5-.62.63-.42,1.25-.21,1.88-.42.21-.21.42-.42.63-.63.42,0,.83.21,1.25,0,1.88-1.67,3.13-3.75,5.21-4.79.42-.21.83-1.25,1.67-.83v-.63h.62v-.63c1.04,0,1.46-.83,2.5-.62.21,0,.42-.42.63-.62h1.25c.21-.21.42-.42.63-.62h1.25c.21-.21.42-.42.63-.63,3.13-.63,6.46,1.04,6.88,4.38,1.46-.42,1.04,1.88,1.88,1.67,1.25-.21,1.46,1.04,2.5.83v.62c1.04-.21,1.04,1.25,2.5.63.21,0,.42.42.62.63h1.25c.21.21.42.42.62.62,1.04.21,2.08.21,3.13.42,5,.63,10,.63,15,0,.21,0,1.25-.21,1.67-.62,1.88-1.46,5.21-2.5,4.58-5.42.42,0,1.04-.21,1.25,0,1.88,2.08,3.13,5.63,6.25,5.63.21,0,.42.63.63.63,4.58.21,9.17.62,13.75-.21.62-.21,1.67-.21,2.5-.42.21-.21.42-.62.62-.62,1.67,0,2.92-1.04,4.38-1.88.42-.21.83,0,1.25,0,.21-.21.42-.42.63-.63.42,0,.83.21,1.25,0v-.62c.42-.21,1.04.21,1.25,0,2.71-3.13,7.92-6.25,11.25-3.13.21.21,1.04-.21,1.25,0,2.29,2.71,4.38,5,6.46,7.92.42.62,1.25,1.25,2.29.83v.63c5.42-.83,12.92,2.29,16.88-2.5h.62c-.21-.62.21-1.04.63-1.25,4.17-1.46,4.58-6.04,8.13-8.75.42-.21,1.25,0,1.88,0,.21-.21.42-.42.63-.63,1.67-.62,3.13.42,4.17,1.46.63.42,1.25,1.25.83,2.29h.62c-.21,2.92-.21,5.63,1.46,8.13.63.83.83.83,1.67,1.88h.62v.63c4.38,1.46,9.17,1.04,13.75.42,1.46-.21,3.13.21,4.17-.63,1.04-.63,2.29-.21,3.33-.42.21-.21.42-.42.62-.62,4.79-1.46,8.13-6.46,12.09-9.79.62-.63,2.29-.42,3.54-.21.21,0,.42.62.63.62,2.08-.21,2.5,2.08,4.38,2.71,0,0-.21.62,0,1.04h.63v.63c1.46-.42,1.04,1.46,1.88,1.88,3.96,2.08,8.34,1.46,12.5,1.04.42-.21,1.25-.21,1.88-.42.21-.21.42-.42.63-.62.63,0,1.46.21,1.88,0,.42-.42.83-.83,1.88-.63v-.63c.42-.21,1.04.21,1.25,0,4.79-4.58,10-9.38,16.88-9.79,1.19,0,2.77,0,4.18-.18-.12-2.29-.21-4.63-.33-7.1-.09-1.64-1.09-2.98-2.26-2.98Z"/>
            <path class="cls-10" d="m466.2,937.17c.19-5.01-.6-10.02-2.36-14.77-4.31-11.67-10.82-17.84-23.48-21.71-19.59-5.98-41.34-5-61.71-1.42-19.15,3.37-50.93,13.6-69.92,17.25-41.92,8.07-66.56-6.36-107.82-14.83-26.73-5.49-55.72-16.19-81.54-3.86-28.98,13.84-27.17,45.85-25.48,73.38.09,1.46,1.13,2.65,2.33,2.65h362.17c1.2,0,2.23-1.19,2.32-2.65.48-8.06.43-14.76,3.16-22.27,1.4-3.84,2.17-7.81,2.32-11.77Z"/>
            <path class="cls-35" d="m259.43,965.73c-4.33-.8-8.44-1.74-12.69-3.09-3.53-1.06-7.04-2.12-10.36-3.86-.49-.27-.67-.82-1-.95-2.3-1.06-3.63-2.82-5.12-4.58-3.13-4.18-8.76-5.91-14.23-4.49-7.23,1.86-10.27,8.5-13.75,13.61-.65-1.97-.41-4.22-1.35-5.93-1.26-2.48-3.25-4.81-4.8-7.4-.15-.13-.31-.65-.76-.77.14-.4-.31-.52-.46-.78-1.22-1.54-3.61-2.9-5.17-1.65-3.11,2.47-.38,6.83.59,10.06.96,2.98,4.74,7.74.7,9.1-5.12,1.99-10.04-1.15-14.62-4.02-3.68-2.22-7.04-3.92-10.77-5.72-5.06-2.37-10.95-.57-15.82,1.17-1.4.53-2.62,1.78-3.59,3.03-1.33,1.61-2.52,3.34-3.71,5.05-1.11-5.07-3.14-10.97-7.96-12.99-4.14-1.78-8.91-.05-12.76,1.86-7.78,3.75-15.09,10.15-23.9,7.81-1.62-.4-3.2-.9-4.67-1.56l.71,11.58c.09,1.46,1.13,2.65,2.33,2.65h177.48c1.99,0,3.61-1.54,3.61-3.44v-8.59c-2.14,1.55-4.57,2.8-7.31,3.64-3.37,1.04-7.08.93-10.57.26Z"/>
            <path class="cls-11" d="m150.35,966.35c-3.98-18.11-17.2-23.94-27.07-24.43-9.83.49-22.45,6.31-24.59,24.43-2.24,18.98-6.02,37.48,12.85,43.31,4.01,1.24,9.49,2.1,15.3,2.25,5.79-.16,11.19-1.01,15.07-2.25,18.28-5.83,12.62-24.33,8.44-43.31Z"/>
            <path class="cls-11" d="m207.77,966.35c-3.64-18.11-16.74-23.94-26.61-24.43-9.84.49-22.57,6.31-25.05,24.43-2.6,18.98-6.73,37.48,12.03,43.31,3.98,1.24,9.45,2.1,15.26,2.25,5.79-.16,11.21-1.01,15.11-2.25,18.39-5.83,13.08-24.33,9.26-43.31Z"/>
            <path class="cls-11" d="m273.6,958.55c-3.72-20.78-18.57-27.47-29.86-28.04-11.27.56-25.98,7.25-29.22,28.04-3.39,21.74-8.5,42.89,12.78,49.55,4.52,1.41,10.74,2.39,17.36,2.57,6.61-.18,12.82-1.16,17.3-2.57,21.13-6.66,15.53-27.81,11.64-49.55Z"/>
            <path class="cls-35" d="m295.18,965.73c4.33-.8,8.44-1.74,12.69-3.09,3.53-1.06,7.04-2.12,10.36-3.86.5-.27.67-.82,1-.95,2.3-1.06,3.63-2.82,5.11-4.58,3.13-4.18,8.75-5.91,14.23-4.49,7.23,1.86,10.28,8.5,13.77,13.61.65-1.97.4-4.22,1.34-5.93,1.26-2.48,3.25-4.81,4.8-7.4.15-.13.31-.65.76-.77-.14-.4.31-.52.46-.78,1.22-1.54,3.6-2.9,5.17-1.65,3.12,2.47.39,6.83-.57,10.06-.95,2.98-4.73,7.74-.69,9.1,5.12,1.99,10.04-1.15,14.61-4.02,3.68-2.22,7.03-3.92,10.77-5.72,5.06-2.37,10.95-.57,15.82,1.17,1.4.53,2.63,1.78,3.6,3.03,1.33,1.61,2.52,3.34,3.71,5.05,1.1-5.07,3.12-10.97,7.95-12.99,4.14-1.78,8.91-.05,12.76,1.86,7.79,3.75,15.1,10.15,23.91,7.81,1.62-.4,3.2-.9,4.67-1.56l-.69,11.58c-.09,1.46-1.13,2.65-2.32,2.65h-177.48c-1.99,0-3.61-1.54-3.61-3.44v-8.59c2.14,1.55,4.56,2.8,7.3,3.64,3.38,1.04,7.08.93,10.57.26Z"/>
            <path class="cls-11" d="m404.26,966.35c3.96-18.11,17.17-23.94,27.05-24.43,9.83.49,22.45,6.31,24.61,24.43,2.26,18.98,6.06,37.48-12.8,43.31-4,1.24-9.49,2.1-15.3,2.25-5.79-.16-11.19-1.01-15.07-2.25-18.28-5.83-12.64-24.33-8.49-43.31Z"/>
            <path class="cls-11" d="m346.84,966.35c3.62-18.11,16.72-23.94,26.58-24.43,9.84.49,22.57,6.31,25.08,24.43,2.62,18.98,6.77,37.48-11.98,43.31-3.98,1.24-9.45,2.1-15.25,2.25-5.79-.16-11.21-1.01-15.11-2.25-18.39-5.83-13.1-24.33-9.31-43.31Z"/>
            <path class="cls-11" d="m281,958.55c3.69-20.78,18.54-27.47,29.83-28.04,11.27.56,25.98,7.25,29.25,28.04,3.42,21.74,8.55,42.89-12.72,49.55-4.51,1.41-10.74,2.39-17.35,2.57-6.61-.18-12.82-1.16-17.3-2.57-21.14-6.66-15.56-27.81-11.7-49.55Z"/>
            <path class="cls-11" d="m148.55,1050.75c-2.61,16.07-13.63,21.26-22.07,21.6-8.44-.56-19.28-6.07-20.95-22.36-1.68-16.37-4.53-31.7,10.64-35.99,3.18-.9,7.53-1.47,12.12-1.47,4.58.24,8.86,1.03,11.95,2.09,14.62,5,10.92,20.01,8.3,36.12Z"/>
            <path class="cls-11" d="m189.43,1051.57c-1.28,15.91-11.64,21.05-19.85,21.39-8.29-.55-19.31-6.01-22.23-22.13-2.94-16.22-6.95-31.41,7.53-35.67,3.04-.89,7.24-1.46,11.73-1.46,4.49.24,8.74,1.02,11.84,2.07,14.69,4.96,12.26,19.83,10.97,35.8Z"/>
            <path class="cls-11" d="m229,1049.97c.01,15.14-9.31,20.02-17,20.34-7.82-.53-18.58-5.72-22.57-21.06-4.01-15.43-8.95-29.89,4.32-33.94,2.78-.85,6.69-1.39,10.91-1.39,4.24.23,8.29.97,11.29,1.97,14.19,4.72,13.04,18.88,13.06,34.08Z"/>
            <path class="cls-11" d="m407.98,1050.44c2.61,16.07,13.63,21.26,22.07,21.61,8.44-.56,19.28-6.08,20.95-22.36,1.68-16.37,4.53-31.7-10.64-35.99-3.18-.9-7.53-1.47-12.12-1.47-4.58.24-8.86,1.03-11.95,2.09-14.62,5-10.92,20.01-8.3,36.12Z"/>
            <path class="cls-11" d="m365.5,1051.27c1.28,15.91,11.64,21.05,19.85,21.39,8.29-.55,19.31-6.01,22.23-22.14,2.94-16.22,6.95-31.41-7.53-35.67-3.04-.89-7.24-1.46-11.73-1.46-4.49.24-8.74,1.02-11.84,2.07-14.69,4.96-12.26,19.83-10.97,35.8Z"/>
            <path class="cls-11" d="m323.43,1049.66c-.01,15.14,9.31,20.02,17,20.34,7.82-.53,18.58-5.72,22.57-21.06,4.01-15.43,8.95-29.89-4.32-33.94-2.78-.85-6.69-1.39-10.91-1.39-4.24.23-8.29.97-11.29,1.97-14.18,4.72-13.04,18.89-13.05,34.08Z"/>
            <path class="cls-11" d="m228.95,1052.55c4.94,14.16,16.53,18.46,24.9,18.82,8.3-.36,19.1-4.65,21.42-18.82,2.68-16.3,7.13-33.83-11.55-39.73-4.04-1.28-9.61-2.17-15.49-2.33-5.85.16-11.25,1.05-15.06,2.33-17.59,5.9-9.9,23.43-4.22,39.73Z"/>
            <path class="cls-11" d="m321.59,1052.55c-4.94,14.16-16.53,18.46-24.9,18.82-8.3-.36-19.1-4.65-21.42-18.82-2.67-16.3-7.13-33.83,11.55-39.73,4.04-1.28,9.61-2.17,15.49-2.33,5.85.16,11.25,1.05,15.06,2.33,17.59,5.9,9.9,23.43,4.22,39.73Z"/>
          </g>
          <g>
            <polygon class="cls-22" points="372.35 928.63 407.93 930.46 413.28 988.82 389.57 991.12 381.6 975.5 380.71 991.12 355.73 982.39 372.35 928.63"/>
            <polygon class="cls-38" points="415.02 910.77 348.78 910.77 346.4 807.56 354.95 802.65 409.71 802.65 415.02 910.77"/>
            <path class="cls-8" d="m389.57,803.9c0,4.4-3.57,7.97-7.97,7.97h0c-4.4,0-7.97-3.57-7.97-7.97v-9.53c0-4.4,3.57-7.97,7.97-7.97h0c4.4,0,7.97,3.57,7.97,7.97v9.53Z"/>
            <path class="cls-8" d="m419.92,771.22c0,16-12.97,28.97-28.98,28.97s-28.98-12.97-28.98-28.97,12.99-29.65,28.98-28.98c33.64,1.43,11.08,32.28,28.98,28.98Z"/>
            <path class="cls-32" d="m451.55,865.61c3.98-4.86,3.01-11.08-5.61-19.91-12.19-12.5-21.78-34.87-21.78-34.87-11.83-16.29-27.5-4.59-31.17,4.84-2.26,5.8-1.58,15.32,4.35,20.18l36.26,29.75c5.93,4.86,13.97,4.87,17.95.01h0Z"/>
            <polygon class="cls-32" points="472.81 821.01 428.79 861.64 451.55 865.61 477.85 825.25 472.81 821.01"/>
            <path class="cls-8" d="m470.27,805.82c2.09-.08,3.69.62,5.14-.73,1.49-1.38,1.08-4.27,2.31-5.9,2.69-3.57,7.26-4.46,10.08-1.39,3.48,3.8,3.97,10.71,2.44,15.62-2.51,8.04-6.19,14.45-15.04,10.24-3.27-1.55-5.29-4.18-6.15-7.69-.27-1.11-.9-9.97.78-10.13.15-.01.29-.02.44-.03Z"/>
            <rect class="cls-4" x="348.78" y="910.77" width="66.24" height="27"/>
            <path class="cls-23" d="m442.66,1110.43h-39.64v-21.65l10.52.57c9.14,12.68,26.03-4.9,29.12,21.08Z"/>
            <polygon class="cls-4" points="397.67 1001.67 413.54 1001.67 415.02 937.78 386.82 937.78 397.67 1001.67"/>
            <polygon class="cls-4" points="403.04 1089.35 413.54 1089.35 413.54 1001.67 397.67 1001.67 403.04 1089.35"/>
            <rect class="cls-23" x="403.02" y="1107.45" width="39.64" height="2.99"/>
            <path class="cls-23" d="m321.18,1110.43h39.64v-21.65l-10.52.57c-9.14,12.68-26.03-4.9-29.12,21.08Z"/>
            <polygon class="cls-4" points="366.16 1001.67 350.29 1001.67 348.82 937.78 377.02 937.78 366.16 1001.67"/>
            <polygon class="cls-4" points="360.8 1089.35 350.29 1089.35 350.29 1001.67 366.16 1001.67 360.8 1089.35"/>
            <rect class="cls-23" x="321.18" y="1107.45" width="39.64" height="2.99"/>
            <path class="cls-11" d="m410.91,782.78h-19.94c-.88,8.9,12.3,18.36,19.94,0Z"/>
            <path class="cls-3" d="m416.12,735.5c-4.99,2.49-5.9,4.3-16.26,1.98-14.6-3.27-35.05-3.03-34.7-1.16-10.71,4.8-18.17,15.55-18.17,28.05,0,16.4,12.85,29.8,29.03,30.68-.53-2.12-.82-4.34-.82-6.62,0-1.41.11-2.79.31-4.14-1.17.62-2.5.98-3.91.98-4.62,0-8.36-3.75-8.36-8.36s3.75-8.36,8.36-8.36c3.57,0,6.61,2.24,7.81,5.39,2.36-7.55.8-13.14.8-13.14,8.55.95,16,2.43,27.88-1.17,10.76-3.63,15.9-12.55,8.04-24.11Z"/>
            <polygon class="cls-32" points="389.57 802.65 407.93 802.65 426.28 1005.83 405.61 1001.67 389.57 802.65"/>
            <polygon class="cls-32" points="373.62 802.7 373.62 1001.67 337.84 996.79 354.86 802.7 373.62 802.7"/>
            <polygon class="cls-34" points="344.85 916.8 372.35 947.7 354.94 847.62 363.44 816.31 353.21 821.56 344.85 916.8"/>
            <g>
              <g>
                <path class="cls-2" d="m414.39,899.59l-1.31-1.69c-.7.54-1.7.41-2.23-.29-.54-.7-.41-1.7.29-2.23l-1.31-1.69-8.22,2.71,4.03,5.23,4.03,5.23,4.71-7.26Z"/>
                <g>
                  <path class="cls-19" d="m352.42,983.99l-39.97-51.83c-1.06-1.38-.81-3.36.57-4.42l68.56-52.87c1.38-1.06,3.36-.81,4.42.57l39.97,51.83c1.06,1.38.81,3.36-.57,4.42l-68.56,52.87c-1.38,1.06-3.36.81-4.42-.57Z"/>
                  <rect class="cls-12" x="326.24" y="897.3" width="85.97" height="64.81" transform="translate(-490.91 418.98) rotate(-37.64)"/>
                  <g>
                    <path class="cls-16" d="m415.4,894.09c-1.4-1.82-4.02-2.16-5.84-.75-1.82,1.4-2.16,4.02-.75,5.84s4.02,2.16,5.84.76c1.82-1.4,2.16-4.02.75-5.84Zm-4.56,3.51c-.54-.7-.41-1.7.29-2.23.7-.54,1.7-.41,2.23.29.54.7.41,1.7-.29,2.23-.7.54-1.7.41-2.23-.29Z"/>
                    <rect class="cls-16" x="399.08" y="889.24" width="9.01" height="27.93" transform="translate(-467.57 434.43) rotate(-37.64)"/>
                  </g>
                </g>
              </g>
              <g>
                <rect class="cls-29" x="366.52" y="896.85" width="15.88" height="15.88" transform="translate(862.28 55.73) rotate(52.36)"/>
                <rect class="cls-29" x="349.99" y="909.6" width="15.88" height="15.88" transform="translate(865.99 73.81) rotate(52.37)"/>
                <rect class="cls-29" x="333.46" y="922.35" width="15.88" height="15.88" transform="translate(869.61 91.84) rotate(52.36)"/>
                <g>
                  <rect class="cls-29" x="381.29" y="919.22" width="26.96" height="3.4" transform="translate(882.98 45.94) rotate(52.36)"/>
                  <rect class="cls-29" x="376.73" y="922.74" width="26.96" height="3.4" transform="translate(883.98 50.91) rotate(52.36)"/>
                </g>
                <g>
                  <rect class="cls-29" x="364.77" y="931.96" width="26.96" height="3.4" transform="translate(886.61 63.97) rotate(52.36)"/>
                  <rect class="cls-29" x="360.21" y="935.48" width="26.96" height="3.4" transform="translate(887.59 68.93) rotate(52.36)"/>
                </g>
                <g>
                  <rect class="cls-29" x="348.2" y="944.74" width="26.96" height="3.4" transform="translate(890.27 82.05) rotate(52.36)"/>
                  <rect class="cls-29" x="343.64" y="948.25" width="26.96" height="3.4" transform="translate(891.29 87.04) rotate(52.36)"/>
                </g>
              </g>
            </g>
            <g>
              <path class="cls-32" d="m339.82,879.35c6.24.68,10.92-3.53,13.61-15.58,3.8-17.04,17.3-37.3,17.3-37.3,7.18-18.81-11.19-25.54-21.09-23.46-6.09,1.28-13.69,7.05-14.53,14.68l-5.09,46.62c-.83,7.62,3.56,14.36,9.8,15.04h0Z"/>
              <polygon class="cls-32" points="370.88 941.93 349.26 864.79 330.69 871.11 364.61 943.96 370.88 941.93"/>
              <path class="cls-8" d="m383.31,953.47c6.03,4.49-9.81,18.22-16.08,14.07-6.27-4.14-10.97-13.4-6.82-19.67,4.15-6.27,9.92-7,17.24-4.91,9.59,2.74-.73,5.75,5.66,10.5Z"/>
            </g>
          </g>
        </g>
      </g>
    </g>
  </g>
</svg>