<svg fill="#000000" xmlns="http://www.w3.org/2000/svg"  viewBox="0 0 50 50" width="50px" height="50px"><path d="M42.081,6.309C39.294,3.49,35.293,2,30.512,2c-1.743,0-3.318,0.198-4.721,0.566c1.672,1.212,3.099,2.811,4.141,4.722	c0.265,0.485,0.086,1.092-0.399,1.356c-0.151,0.083-0.315,0.122-0.478,0.122c-0.354,0-0.697-0.188-0.879-0.521	C26.618,5.388,23,2,18.788,2.032c-3.249-0.013-6.359,1.057-8.882,2.929c-0.595,0.442-0.469,1.34,0.185,1.69	c1.811,0.969,3.016,2.921,2.9,5.145c-0.15,2.874-2.644,5.22-5.522,5.205c-0.733-0.004-1.431-0.152-2.069-0.416	c-0.654-0.271-1.364,0.266-1.341,0.973c0.012,0.392,0.032,0.747,0.059,0.943c0.385,2.793,1.651,5.001,2.978,7.317	c1.084,1.891,2.205,3.846,2.86,6.225c0.381,1.417,0.719,2.933,1.045,4.398C12.328,42.385,13.58,48,17.756,48	c2.908,0,4.645-2.053,4.645-5.492c0-4.27,0.927-9.949,1.619-13.822c0.13-0.63,0.604-0.854,1.014-0.854c0.007,0,0.015,0,0.022,0	c0.184,0.004,0.793,0.073,0.919,0.83c1.077,5.902,1.624,10.56,1.624,13.845c0,3.439,1.736,5.492,4.645,5.492	c4.158,0,5.41-5.592,6.734-11.512c0.333-1.484,0.676-3.02,1.063-4.439c0.657-2.385,1.778-4.341,2.862-6.231	c1.593-2.779,3.097-5.403,3.097-9.056C46.046,12.562,44.691,8.947,42.081,6.309z"/></svg>