<svg fill="#000000" xmlns="http://www.w3.org/2000/svg"  viewBox="0 0 50 50" width="50px" height="50px"><path d="M 39 1 A 1.0001 1.0001 0 0 0 38.105469 1.5527344 L 37.277344 3.2070312 C 35.274463 2.4163135 33.0034 2 30.511719 2 C 28.768719 2 27.194016 2.1984063 25.791016 2.5664062 C 27.463016 3.7784062 28.889641 5.3761094 29.931641 7.2871094 C 30.196641 7.7721094 30.018203 8.3805312 29.533203 8.6445312 C 29.382203 8.7275313 29.217688 8.765625 29.054688 8.765625 C 28.700688 8.765625 28.357781 8.5771406 28.175781 8.2441406 C 26.617781 5.3871406 22.999109 1.99925 18.787109 2.03125 C 10.999109 1.99925 4 8.182 4 16.75 C 4 20.415 5.5046563 23.038406 7.0976562 25.816406 C 8.1816562 27.707406 9.3020312 29.663969 9.9570312 32.042969 C 10.338031 33.459969 10.675953 34.974453 11.001953 36.439453 C 12.327953 42.384453 13.579859 48 17.755859 48 C 20.663859 48 22.400391 45.946812 22.400391 42.507812 C 22.400391 38.237812 23.327531 32.558547 24.019531 28.685547 C 24.149531 28.055547 24.623203 27.832031 25.033203 27.832031 L 25.056641 27.832031 C 25.240641 27.836031 25.848609 27.905109 25.974609 28.662109 C 27.051609 34.564109 27.599609 39.222812 27.599609 42.507812 C 27.599609 45.946813 29.335141 47.998047 32.244141 47.998047 C 36.402141 47.998047 37.654516 42.406328 38.978516 36.486328 C 39.311516 35.002328 39.654016 33.467828 40.041016 32.048828 C 40.698016 29.663828 41.818344 27.706406 42.902344 25.816406 C 44.495344 23.037406 46 20.414719 46 16.761719 C 46.011575 15.6873 45.923388 14.653556 45.753906 13.662109 L 48.800781 9.5996094 A 1.0001 1.0001 0 0 0 48 8 L 43.724609 8 L 46.869141 2.4960938 A 1.0001 1.0001 0 0 0 46 1 L 39 1 z M 39.617188 3 L 44.275391 3 L 41.130859 8.5039062 A 1.0001 1.0001 0 0 0 42 10 L 46 10 L 36.734375 22.351562 L 39.927734 14.371094 A 1.0001 1.0001 0 0 0 39 13 L 34.617188 13 L 39.617188 3 z"/></svg>